<?xml version="1.0" encoding="UTF-8"?>
<svg version="1.1" xmlns="http://www.w3.org/2000/svg" width="464" height="230">
<path d="M0 0 C0.99 0.33 1.98 0.66 3 1 C4.1474557 3.35865894 4.9088246 5.55714805 5.4375 8.125 C6.12641749 10.42139163 7.29220731 11.36645917 9 13 C9 13.66 9 14.32 9 15 C8.01 15 7.02 15 6 15 C6.12177688 16.91466367 6.12177688 16.91466367 7 19 C8.64142963 20.0409066 10.30712215 21.04504326 12 22 C12 22.66 12 23.32 12 24 C10.68 24.33 9.36 24.66 8 25 C7.67 26.65 7.34 28.3 7 30 C10.465 31.98 10.465 31.98 14 34 C13.67 33.01 13.34 32.02 13 31 C14.06537601 26.29458929 15.7232142 22.24310081 18 18 C18.99 18 19.98 18 21 18 C23 23.625 23 23.625 23 27 C24.0772721 28.65503095 24.0772721 28.65503095 25.5 30.1875 C26.7375 31.5796875 26.7375 31.5796875 28 33 C26.68 33 25.36 33 24 33 C24.12177688 34.91466367 24.12177688 34.91466367 25 37 C26.64142963 38.0409066 28.30712215 39.04504326 30 40 C30 40.66 30 41.32 30 42 C28.02 42.495 28.02 42.495 26 43 C25.67 44.65 25.34 46.3 25 48 C28.465 49.98 28.465 49.98 32 52 C32.268125 51.113125 32.53625 50.22625 32.8125 49.3125 C33.91710819 46.23122452 35.22849144 43.73778595 37 41 C39.56296049 42.28148025 39.59318218 43.15611519 40.5 45.8125 C41.50682946 48.66009848 42.60814517 51.31570854 44 54 C44.33 54.99 44.66 55.98 45 57 C44.34 57.66 43.68 58.32 43 59 C42.505 59.99 42.505 59.99 42 61 C43.65 61.66 45.3 62.32 47 63 C47 63.99 47 64.98 47 66 C46.01 66.66 45.02 67.32 44 68 C42.80767387 70.05003955 42.80767387 70.05003955 42 72 C42.5775 72.28875 43.155 72.5775 43.75 72.875 C45.20892845 73.60446423 46.64892473 74.37362333 48.0625 75.1875 C50.15384706 76.31455354 50.15384706 76.31455354 53 75 C54.17138134 71.56684863 54.17138134 71.56684863 55 68 C55.33 67.34 55.66 66.68 56 66 C56.66 66 57.32 66 58 66 C58.66 67.98 59.32 69.96 60 72 C61.32 70.35 62.64 68.7 64 67 C67 68 67 68 68.01953125 69.7421875 C68.28121094 70.44601563 68.54289062 71.14984375 68.8125 71.875 C69.08707031 72.57367188 69.36164063 73.27234375 69.64453125 73.9921875 C70 76 70 76 68 79 C69.98 79.99 69.98 79.99 72 81 C70.515 81.495 70.515 81.495 69 82 C68.26676204 84.01508358 68.26676204 84.01508358 68 86 C69.175625 86.37125 69.175625 86.37125 70.375 86.75 C73.43941457 88.20924503 73.61725761 89.05014956 75 92 C78.03794201 93.90642862 80.70699311 94.34528893 84.25 94.625 C86.60125 94.810625 86.60125 94.810625 89 95 C89.99 91.04 90.98 87.08 92 83 C92.99 83 93.98 83 95 83 C95 83.66 95 84.32 95 85 C95.99 85 96.98 85 98 85 C98.33 82.69 98.66 80.38 99 78 C100.485 78.495 100.485 78.495 102 79 C102.94921875 81.06640625 102.94921875 81.06640625 103.6875 83.5625 C103.93886719 84.38878906 104.19023438 85.21507813 104.44921875 86.06640625 C104.63097656 86.70449219 104.81273438 87.34257813 105 88 C104.938125 87.21625 104.87625 86.4325 104.8125 85.625 C104.874375 84.75875 104.93625 83.8925 105 83 C105.99 82.34 106.98 81.68 108 81 C108.48198463 82.24891614 108.96045677 83.49918808 109.4375 84.75 C109.70433594 85.44609375 109.97117187 86.1421875 110.24609375 86.859375 C110.96146693 88.89059003 111.51365652 90.9035291 112 93 C112.33 90.36 112.66 87.72 113 85 C113.99 84.67 114.98 84.34 116 84 C117 87 118 90 119 93 C118.67 93.66 118.34 94.32 118 95 C119.32 94.67 120.64 94.34 122 94 C122.06058594 93.22914062 122.12117188 92.45828125 122.18359375 91.6640625 C122.30927734 90.15972656 122.30927734 90.15972656 122.4375 88.625 C122.51871094 87.62726563 122.59992188 86.62953125 122.68359375 85.6015625 C123 83 123 83 124 81 C124.66 81 125.32 81 126 81 C126.99 84.3 127.98 87.6 129 91 C132.60654039 88.59563974 132.85452932 87.05320393 134 83 C136.52259061 84.97420135 136.9929808 85.96745642 137.6875 89.1875 C137.790625 90.115625 137.89375 91.04375 138 92 C140.64 92.33 143.28 92.66 146 93 C146.33 91.02 146.66 89.04 147 87 C147.99 87.33 148.98 87.66 150 88 C150.33 90.31 150.66 92.62 151 95 C151.66 94.67 152.32 94.34 153 94 C153.65213292 91.97536745 153.65213292 91.97536745 154 90 C154.66 90 155.32 90 156 90 C156.12375 90.969375 156.2475 91.93875 156.375 92.9375 C156.58125 93.948125 156.7875 94.95875 157 96 C157.66 96.33 158.32 96.66 159 97 C159 95.35 159 93.7 159 92 C159.99 92 160.98 92 162 92 C162.37125 93.423125 162.37125 93.423125 162.75 94.875 C163.6857077 98.08693191 163.6857077 98.08693191 166.125 99.375 C166.74375 99.58125 167.3625 99.7875 168 100 C168.33 98.35 168.66 96.7 169 95 C169.66 95.33 170.32 95.66 171 96 C171 97.65 171 99.3 171 101 C171.64396729 101.17015625 172.28793457 101.3403125 172.95141602 101.515625 C181.45500195 103.79476484 189.84345978 106.3973806 198.24023438 109.0390625 C218.60218411 115.53659474 218.60218411 115.53659474 239.6875 114.125 C244.42256891 111.08740862 245.49747413 107.26872559 247 102 C249 103 249 103 250.125 106.0625 C250.558125 107.5165625 250.558125 107.5165625 251 109 C251.99 106.69 252.98 104.38 254 102 C254.99 102.33 255.98 102.66 257 103 C257 103.99 257 104.98 257 106 C259.27426046 105.15570324 259.27426046 105.15570324 259.8515625 102.49609375 C260.10679687 101.48675781 260.36203125 100.47742188 260.625 99.4375 C261.01558594 97.91962891 261.01558594 97.91962891 261.4140625 96.37109375 C261.60742188 95.58863281 261.80078125 94.80617188 262 94 C262.66 94 263.32 94 264 94 C264.66 96.97 265.32 99.94 266 103 C270.20420265 101.44269702 270.20420265 101.44269702 271.265625 97.9609375 C271.59046875 96.77757813 271.9153125 95.59421875 272.25 94.375 C272.58515625 93.18648438 272.9203125 91.99796875 273.265625 90.7734375 C273.50796875 89.85820313 273.7503125 88.94296875 274 88 C274.99 88 275.98 88 277 88 C277.33 89.65 277.66 91.3 278 93 C279.485 89.535 279.485 89.535 281 86 C284 87 284 87 285 89 C285.66 86.69 286.32 84.38 287 82 C287.99 82.33 288.98 82.66 290 83 C290.66 87.29 291.32 91.58 292 96 C298.27 95.67 304.54 95.34 311 95 C311 94.34 311 93.68 311 93 C311.66 92.34 312.32 91.68 313 91 C312.67 90.34 312.34 89.68 312 89 C312.66 88.34 313.32 87.68 314 87 C316.68198058 80.61098866 318.23801023 73.68556402 320 67 C323.10877662 69.79957035 323.64288953 71.80395196 324 76 C323.67 76.66 323.34 77.32 323 78 C323.99 78.33 324.98 78.66 326 79 C325.67 80.32 325.34 81.64 325 83 C325.66 83 326.32 83 327 83 C326.67 84.65 326.34 86.3 326 88 C326.66 88 327.32 88 328 88 C328 88.99 328 89.98 328 91 C327.34 91 326.68 91 326 91 C326 91.66 326 92.32 326 93 C326.66 93.33 327.32 93.66 328 94 C327.34 94 326.68 94 326 94 C326 94.66 326 95.32 326 96 C326.66 96.33 327.32 96.66 328 97 C327.67 97.66 327.34 98.32 327 99 C330.98340931 96.34439379 331.08170597 93.48665388 332 89.0625 C333.82901886 80.29715964 333.82901886 80.29715964 337 78 C338.62087713 81.66459177 340.11657409 85.08768525 341 89 C341.65509503 91.00382009 342.31974363 93.00458132 343 95 C346.14259619 95.20952909 346.14259619 95.20952909 349.25 93.5 C352.89379416 91.84514252 355.99323148 91.75468764 360 92 C359.7525 91.278125 359.505 90.55625 359.25 89.8125 C359 87 359 87 360.6875 84.3125 C362.77336319 82.22663681 364.28621763 81.06612879 367 80 C366.34 79.34 365.68 78.68 365 78 C365.99 77.01 366.98 76.02 368 75 C367.67 74.01 367.34 73.02 367 72 C367.99 71.01 368.98 70.02 370 69 C368.02 69 366.04 69 364 69 C364 68.34 364 67.68 364 67 C365.98 66.01 367.96 65.02 370 64 C369.34 63.67 368.68 63.34 368 63 C368 62.34 368 61.68 368 61 C368.66 61 369.32 61 370 61 C369.67 60.01 369.34 59.02 369 58 C369.99609375 55.51953125 369.99609375 55.51953125 371.4375 52.8125 C372.14712891 51.46091797 372.14712891 51.46091797 372.87109375 50.08203125 C373.24363281 49.39496094 373.61617188 48.70789063 374 48 C374.66 48 375.32 48 376 48 C376.50367757 49.45706726 377.00282556 50.91570096 377.5 52.375 C377.91765625 53.59316406 377.91765625 53.59316406 378.34375 54.8359375 C379 57 379 57 379 59 C379.66 59.495 380.32 59.99 381 60.5 C381.66 60.995 382.32 61.49 383 62 C383 62.66 383 63.32 383 64 C381.515 64.99 381.515 64.99 380 66 C380.33 66.66 380.66 67.32 381 68 C384.02419525 67.41196203 387.01758453 66.77321882 390 66 C390 65.34 390 64.68 390 64 C389.01 63.67 388.02 63.34 387 63 C388.2976183 57.70139194 390.15015702 53.65474354 393 49 C393.99 49.33 394.98 49.66 396 50 C396.58984375 51.85546875 396.58984375 51.85546875 396.9375 54.1875 C397.77910654 58.69045464 399.22264089 61.38943316 402 65 C400.515 65.99 400.515 65.99 399 67 C398.67 67.66 398.34 68.32 398 69 C402.39253773 70.56272189 402.39253773 70.56272189 407 71 C407.33 70.67 407.66 70.34 408 70 C406.02 69.67 404.04 69.34 402 69 C404.17424117 66.49962266 405.73045798 65.56371414 409 65 C409 64.34 409 63.68 409 63 C408.34 63 407.68 63 407 63 C408.81957187 51.97553517 408.81957187 51.97553517 412 48 C412.66 48 413.32 48 414 48 C414.99 50.97 415.98 53.94 417 57 C417.99 57 418.98 57 420 57 C419.34 56.01 418.68 55.02 418 54 C418.495 53.566875 418.99 53.13375 419.5 52.6875 C421.33218192 51.00259517 421.33218192 51.00259517 421 48 C421.66 47.01 422.32 46.02 423 45 C421.02 45 419.04 45 417 45 C418.93254772 42.9754262 420.63158688 41.57894208 423 40 C422.34 39.34 421.68 38.68 421 38 C422.2976183 32.70139194 424.15015702 28.65474354 427 24 C429.56296049 25.28148025 429.59318218 26.15611519 430.5 28.8125 C430.88865234 29.89337891 430.88865234 29.89337891 431.28515625 30.99609375 C431.63900391 31.98802734 431.63900391 31.98802734 432 33 C433.11509709 35.82491263 433.49549961 36.70323506 436.125 38.25 C436.74375 38.4975 437.3625 38.745 438 39 C438.66 38.34 439.32 37.68 440 37 C440 36.01 440 35.02 440 34 C440.66 33.01 441.32 32.02 442 31 C441.34 30.67 440.68 30.34 440 30 C441.485 28.02 441.485 28.02 443 26 C441.02 26 439.04 26 437 26 C439.17424117 23.49962266 440.73045798 22.56371414 444 22 C444 21.34 444 20.68 444 20 C443.34 20 442.68 20 442 20 C441.69982977 15.83513802 442.54675054 13.34984273 444.5 9.6875 C445.19609375 8.36298828 445.19609375 8.36298828 445.90625 7.01171875 C446.2671875 6.34785156 446.628125 5.68398438 447 5 C450 6 450 6 450.87890625 7.70703125 C451.10449219 8.40183594 451.33007812 9.09664062 451.5625 9.8125 C452.53861842 12.67441787 453.60609237 15.31174957 455 18 C455.33 18.99 455.66 19.98 456 21 C455.01 21 454.02 21 453 21 C453 21.99 453 22.98 453 24 C455.94236782 26.21168225 455.94236782 26.21168225 459 28 C458.38125 28.598125 457.7625 29.19625 457.125 29.8125 C454.86323046 32.00811144 454.86323046 32.00811144 453 35 C453.86625 35.4021875 453.86625 35.4021875 454.75 35.8125 C457.09484564 37.05005742 459.04225437 38.20539984 461 40 C461.77741214 42.93816058 461.39941065 44.90456749 461 48 C461 48.99 461 49.98 461 51 C460.34 51.33 459.68 51.66 459 52 C459.66 52.33 460.32 52.66 461 53 C461 101.18 461 149.36 461 199 C389.72 199 318.44 199 245 199 C248.08143875 196.9457075 250.36605906 196.22154651 253.91796875 195.265625 C255.09037109 194.93820313 256.26277344 194.61078125 257.47070312 194.2734375 C259.92643223 193.59724094 262.38475623 192.93039076 264.84570312 192.2734375 C274.79896595 189.46540928 281.03679138 185.74171823 287.6875 177.8125 C290.56458911 174.38839578 293.10691848 172.19066138 297 170 C298.35251497 168.68612831 299.68945377 167.35573748 301 166 C301.66 165.67 302.32 165.34 303 165 C301.71311279 164.85900879 300.42622559 164.71801758 299.1003418 164.57275391 C294.33035783 164.04796961 289.56163182 163.51243721 284.79321289 162.97363281 C282.72843674 162.74185069 280.66333017 162.51299281 278.59790039 162.28710938 C275.63075698 161.96209919 272.66495714 161.62662366 269.69921875 161.2890625 C268.7741301 161.19001617 267.84904144 161.09096985 266.8959198 160.98892212 C266.03525406 160.88896942 265.17458832 160.78901672 264.2878418 160.68603516 C263.53061325 160.60165192 262.7733847 160.51726868 261.99320984 160.43032837 C260 160 260 160 257 158 C259.34167715 155.65832285 265.31316533 156.67041653 268.484375 156.57421875 C272.50582368 155.91738213 273.97789419 154.62459442 277 152 C279.17578125 151.3828125 279.17578125 151.3828125 281.3125 151.125 C285.04006268 150.45342259 287.10501322 149.37021344 290 146.9375 C293.66505322 143.90762532 296.24576577 143.48074374 300.91015625 143.2734375 C304.15489584 142.84889213 306.33247605 140.81618652 309 139 C311.69851955 138.39049832 314.22675453 138.19125831 317 138 C316.21735745 135.86708014 316.21735745 135.86708014 314.34472656 135.38110352 C311.3620851 134.89631558 308.50678187 134.88860554 305.484375 134.90234375 C304.23398437 134.90556641 302.98359375 134.90878906 301.6953125 134.91210938 C300.39335937 134.92048828 299.09140625 134.92886719 297.75 134.9375 C296.43257813 134.94201172 295.11515625 134.94652344 293.7578125 134.95117188 C290.50516259 134.96295684 287.25260416 134.97940989 284 135 C283.67 134.34 283.34 133.68 283 133 C283.66 132.67 284.32 132.34 285 132 C284.13509949 131.98969254 283.27019897 131.97938507 282.37908936 131.96876526 C274.08786147 131.86935876 265.79668108 131.76668845 257.50553513 131.66066074 C253.24654729 131.60630338 248.98755259 131.55305879 244.72851562 131.50268555 C228.05150367 131.30451398 211.37430709 131.08808194 194.703125 130.58984375 C192.94896271 130.54676842 192.94896271 130.54676842 191.15936279 130.50282288 C190.10291565 130.46700607 189.04646851 130.43118927 187.95800781 130.39428711 C186.58409882 130.35252602 186.58409882 130.35252602 185.18243408 130.30992126 C183 130 183 130 181 128 C181.67546875 127.80664062 182.3509375 127.61328125 183.046875 127.4140625 C184.38492188 127.02347656 184.38492188 127.02347656 185.75 126.625 C187.07257813 126.24214844 187.07257813 126.24214844 188.421875 125.8515625 C190.94068326 125.10168997 190.94068326 125.10168997 192.890625 123.98632812 C195.13299666 122.93781174 196.87440817 122.61255918 199.328125 122.3671875 C200.12734375 122.28339844 200.9265625 122.19960937 201.75 122.11328125 C202.575 122.03464844 203.4 121.95601563 204.25 121.875 C205.51070313 121.74544922 205.51070313 121.74544922 206.796875 121.61328125 C208.86388223 121.40188278 210.93185928 121.20000538 213 121 C201.72356825 120.14148019 190.59614821 119.92917421 179.29394531 120.296875 C176.84197484 120.37606662 174.38988145 120.44271363 171.9375 120.5078125 C170.35154135 120.55396627 168.76560273 120.60081509 167.1796875 120.6484375 C166.09988113 120.67821182 166.09988113 120.67821182 164.9982605 120.70858765 C160.58842527 120.85768809 156.34831268 121.30452571 152 122 C151.34 123.65 150.68 125.3 150 127 C154.04554911 129.17479463 157.72283901 130.58120261 162.2109375 131.53515625 C163.37367188 131.78716797 164.53640625 132.03917969 165.734375 132.29882812 C166.93578125 132.55083984 168.1371875 132.80285156 169.375 133.0625 C171.75800373 133.57332747 174.1408212 134.08502476 176.5234375 134.59765625 C177.63944336 134.83629395 178.75544922 135.07493164 179.90527344 135.32080078 C183.62598278 136.13738436 187.31293888 137.04392584 191 138 C190.67 138.66 190.34 139.32 190 140 C188.22851562 140.47070312 188.22851562 140.47070312 185.90625 140.78125 C185.03871094 140.90113281 184.17117187 141.02101562 183.27734375 141.14453125 C181.90255859 141.32048828 181.90255859 141.32048828 180.5 141.5 C179.21802734 141.67595703 179.21802734 141.67595703 177.91015625 141.85546875 C173.68972814 142.42513466 169.47302724 142.95242119 165.23535156 143.37866211 C153.52782802 144.57369111 142.21461347 146.94850239 130.75 149.5625 C128.89471065 149.97931496 127.03924241 150.39533448 125.18359375 150.81054688 C121.80842504 151.56608892 118.43454192 152.32696453 115.06152344 153.09204102 C112.04888849 153.77198494 109.03285702 154.41526578 106 155 C106 155.66 106 156.32 106 157 C106.99 157.33 107.98 157.66 109 158 C109 158.66 109 159.32 109 160 C108.0212793 160.05534912 107.04255859 160.11069824 106.03417969 160.16772461 C102.39609332 160.37448162 98.75831407 160.58626853 95.12060547 160.79956055 C93.54744235 160.89109887 91.97419968 160.98128087 90.40087891 161.07006836 C88.13682025 161.1980742 85.87309436 161.33098727 83.609375 161.46484375 C82.90818542 161.50343002 82.20699585 161.5420163 81.48455811 161.58177185 C78.21964773 161.77936231 75.13666072 162.04001303 72 163 C72 163.66 72 164.32 72 165 C73.15757813 165.01417969 74.31515625 165.02835938 75.5078125 165.04296875 C77.04691372 165.08989257 78.58597499 165.13813982 80.125 165.1875 C81.26582031 165.19620117 81.26582031 165.19620117 82.4296875 165.20507812 C88.36524937 165.43533699 90.69989626 166.96787374 95 171 C96.99586373 171.95253834 96.99586373 171.95253834 99 172.25 C99.75925781 172.39179688 100.51851563 172.53359375 101.30078125 172.6796875 C105.74049349 173.20654192 110.20025229 173.35062351 114.66796875 173.4609375 C121.86778556 174.62573787 125.49849307 179.45764532 129.5625 185 C135.32328903 192.96055131 135.32328903 192.96055131 144 197 C144.33 197.66 144.66 198.32 145 199 C96.16 199 47.32 199 -3 199 C-3.1209091 150.55127475 -3.1209091 150.55127475 -3.14648438 130.28320312 C-3.16430052 116.27641514 -3.18526982 102.2696812 -3.22631836 88.26293945 C-3.25619664 78.06290449 -3.27556929 67.86291328 -3.28226548 57.66283578 C-3.28618039 52.26072187 -3.29539736 46.85873315 -3.31719017 41.45665932 C-3.33753044 36.37353232 -3.34383875 31.29058227 -3.33932304 26.20741844 C-3.34014934 24.34055495 -3.34612959 22.47368563 -3.35761642 20.6068573 C-3.37252208 18.05977427 -3.36896074 15.51336105 -3.36076355 12.96626282 C-3.36950207 12.22598306 -3.3782406 11.48570329 -3.38724393 10.72299081 C-3.34875602 6.30447002 -2.63130622 3.5657062 0 0 Z M385 70 C385 70.33 385 70.66 385 71 C383.35 71.33 381.7 71.66 380 72 C379.67 73.98 379.34 75.96 379 78 C381.30566683 80.12802546 381.30566683 80.12802546 384 82 C384.99 81.67 385.98 81.34 387 81 C386.34 80.01 385.68 79.02 385 78 C385.99 77.67 386.98 77.34 388 77 C388 75.68 388 74.36 388 73 C388.33 72.01 388.66 71.02 389 70 C387.68 70 386.36 70 385 70 Z M400 74 C400 75.32 400 76.64 400 78 C399.01 78.495 399.01 78.495 398 79 C399.75244247 80.6483633 399.75244247 80.6483633 402 82 C404.20800528 81.78282648 404.20800528 81.78282648 406 81 C405.34 79.68 404.68 78.36 404 77 C404.99 76.67 405.98 76.34 407 76 C407 75.34 407 74.68 407 74 C403.98968256 73.06576355 403.13349732 72.95550089 400 74 Z M96 86 C96.66 86.66 97.32 87.32 98 88 C98 87.34 98 86.68 98 86 C97.34 86 96.68 86 96 86 Z M328 100 C329 102 329 102 329 102 Z " fill="#030303" transform="translate(3,31)"/>
<path d="M0 0 C0.66 0 1.32 0 2 0 C2.50367757 1.45706726 3.00282556 2.91570096 3.5 4.375 C3.7784375 5.18710938 4.056875 5.99921875 4.34375 6.8359375 C5 9 5 9 5 11 C5.66 11.495 6.32 11.99 7 12.5 C7.66 12.995 8.32 13.49 9 14 C9 14.66 9 15.32 9 16 C8.01 16.66 7.02 17.32 6 18 C6.33 18.66 6.66 19.32 7 20 C10.02419525 19.41196203 13.01758453 18.77321882 16 18 C16 17.34 16 16.68 16 16 C15.01 15.67 14.02 15.34 13 15 C14.2976183 9.70139194 16.15015702 5.65474354 19 1 C19.99 1.33 20.98 1.66 22 2 C22.58984375 3.85546875 22.58984375 3.85546875 22.9375 6.1875 C23.77910654 10.69045464 25.22264089 13.38943316 28 17 C27.01 17.66 26.02 18.32 25 19 C24.67 19.66 24.34 20.32 24 21 C23.01 21 22.02 21 21 21 C21 21.99 21 22.98 21 24 C19.37660195 25.70884005 17.70680947 27.37446717 16 29 C14.06201737 31.77260299 14.06201737 31.77260299 13 34 C12.34 32.68 11.68 31.36 11 30 C11.99 29.01 12.98 28.02 14 27 C13.34 26.67 12.68 26.34 12 26 C12.99 24.68 13.98 23.36 15 22 C14.01 22.66 13.02 23.32 12 24 C10.34450469 24.38499891 8.6777567 24.72793135 7 25 C6.23043864 27.34533951 6.23043864 27.34533951 6 30 C7.33378575 31.8354799 7.33378575 31.8354799 9 33 C6.08517222 33.80967438 4.53886783 34.21845993 1.6875 33.0625 C0.8521875 32.5365625 0.8521875 32.5365625 0 32 C1 30 1 30 2 29 C1.59070014 26.94603274 1.59070014 26.94603274 1 25 C-2.37088267 27.27415287 -2.37088267 27.27415287 -4 31 C-3.34 31.33 -2.68 31.66 -2 32 C-3.8125 32.6875 -3.8125 32.6875 -6 33 C-7.75 31.5625 -7.75 31.5625 -9 30 C-8.01 29.01 -7.02 28.02 -6 27 C-6.33 26.01 -6.66 25.02 -7 24 C-6.01 23.01 -5.02 22.02 -4 21 C-5.98 21 -7.96 21 -10 21 C-10 20.34 -10 19.68 -10 19 C-8.02 18.01 -6.04 17.02 -4 16 C-4.66 15.67 -5.32 15.34 -6 15 C-6 14.34 -6 13.68 -6 13 C-5.34 13 -4.68 13 -4 13 C-4.33 12.01 -4.66 11.02 -5 10 C-4.00390625 7.51953125 -4.00390625 7.51953125 -2.5625 4.8125 C-2.08941406 3.91144531 -1.61632812 3.01039062 -1.12890625 2.08203125 C-0.75636719 1.39496094 -0.38382812 0.70789063 0 0 Z M3 23 C3 23.99 3 24.98 3 26 C3.66 25.67 4.32 25.34 5 25 C4.34 24.34 3.68 23.68 3 23 Z " fill="#0D0D0D" transform="translate(377,79)"/>
<path d="M0 0 C0.99 0.33 1.98 0.66 3 1 C3.58984375 2.85546875 3.58984375 2.85546875 3.9375 5.1875 C4.77910654 9.69045464 6.22264089 12.38943316 9 16 C8.01 16.66 7.02 17.32 6 18 C5.67 18.66 5.34 19.32 5 20 C4.01 20 3.02 20 2 20 C2 20.99 2 21.98 2 23 C0.37660195 24.70884005 -1.29319053 26.37446717 -3 28 C-4.93798263 30.77260299 -4.93798263 30.77260299 -6 33 C-6.66 31.68 -7.32 30.36 -8 29 C-7.01 28.01 -6.02 27.02 -5 26 C-5.66 25.67 -6.32 25.34 -7 25 C-6.01 23.68 -5.02 22.36 -4 21 C-4.78375 21.20625 -5.5675 21.4125 -6.375 21.625 C-7.24125 21.74875 -8.1075 21.8725 -9 22 C-9.66 21.34 -10.32 20.68 -11 20 C-5.25 17 -5.25 17 -3 17 C-3 16.34 -3 15.68 -3 15 C-3.99 14.67 -4.98 14.34 -6 14 C-4.7023817 8.70139194 -2.84984298 4.65474354 0 0 Z " fill="#404040" transform="translate(396,80)"/>
<path d="M0 0 C3 1 3 1 3.87890625 2.70703125 C4.10449219 3.40183594 4.33007812 4.09664062 4.5625 4.8125 C5.53861842 7.67441787 6.60609237 10.31174957 8 13 C8.33 13.99 8.66 14.98 9 16 C8.01 16 7.02 16 6 16 C6 16.99 6 17.98 6 19 C8.94236782 21.21168225 8.94236782 21.21168225 12 23 C10 25 8 27 6 29 C5.67 27.35 5.34 25.7 5 24 C5.66 24 6.32 24 7 24 C7 23.34 7 22.68 7 22 C5.68 22.33 4.36 22.66 3 23 C3.33 22.01 3.66 21.02 4 20 C-0.24822374 20.47202486 -2.19989709 22.96655518 -5 26 C-5.66 25.67 -6.32 25.34 -7 25 C-6.01 23.68 -5.02 22.36 -4 21 C-5.98 21 -7.96 21 -10 21 C-7.82575883 18.49962266 -6.26954202 17.56371414 -3 17 C-3 16.34 -3 15.68 -3 15 C-3.66 15 -4.32 15 -5 15 C-5.30017023 10.83513802 -4.45324946 8.34984273 -2.5 4.6875 C-2.0359375 3.80449219 -1.571875 2.92148437 -1.09375 2.01171875 C-0.55234375 1.01591797 -0.55234375 1.01591797 0 0 Z " fill="#414141" transform="translate(450,36)"/>
<path d="M0 0 C0.99 0.33 1.98 0.66 3 1 C4.1474557 3.35865894 4.9088246 5.55714805 5.4375 8.125 C6.12641749 10.42139163 7.29220731 11.36645917 9 13 C9 13.66 9 14.32 9 15 C8.01 15 7.02 15 6 15 C6.33 16.65 6.66 18.3 7 20 C5.72125 20.144375 4.4425 20.28875 3.125 20.4375 C0.74307106 20.70642746 -0.84452691 20.92226346 -3 22 C-3.08126109 19.27022936 -3.14061663 16.5428983 -3.1875 13.8125 C-3.21263672 13.04357422 -3.23777344 12.27464844 -3.26367188 11.48242188 C-3.32421425 6.7802972 -2.96375211 3.88165959 0 0 Z " fill="#1D1D1D" transform="translate(3,31)"/>
<path d="M0 0 C0.66 0 1.32 0 2 0 C2.50367757 1.45706726 3.00282556 2.91570096 3.5 4.375 C3.7784375 5.18710938 4.056875 5.99921875 4.34375 6.8359375 C5 9 5 9 5 11 C5.66 11.495 6.32 11.99 7 12.5 C7.66 12.995 8.32 13.49 9 14 C9 14.66 9 15.32 9 16 C8.01 16.66 7.02 17.32 6 18 C6 18.66 6 19.32 6 20 C4.37007308 19.60304363 2.74607765 19.18167507 1.125 18.75 C0.22007812 18.51796875 -0.68484375 18.2859375 -1.6171875 18.046875 C-4 17 -4 17 -5.3203125 14.890625 C-5.54460937 14.26671875 -5.76890625 13.6428125 -6 13 C-5.34 13 -4.68 13 -4 13 C-4.33 12.01 -4.66 11.02 -5 10 C-4.00390625 7.51953125 -4.00390625 7.51953125 -2.5625 4.8125 C-2.08941406 3.91144531 -1.61632812 3.01039062 -1.12890625 2.08203125 C-0.75636719 1.39496094 -0.38382812 0.70789063 0 0 Z " fill="#2F2F2F" transform="translate(377,79)"/>
<path d="M0 0 C0.99 0 1.98 0 3 0 C5 5.625 5 5.625 5 9 C6.0772721 10.65503095 6.0772721 10.65503095 7.5 12.1875 C8.325 13.115625 9.15 14.04375 10 15 C8.68 15 7.36 15 6 15 C5.67 16.32 5.34 17.64 5 19 C4.34 19 3.68 19 3 19 C3.33 18.01 3.66 17.02 4 16 C3.01 16.33 2.02 16.66 1 17 C-1.33183607 17.67188497 -3.66501142 18.33915417 -6 19 C-6.66 18.34 -7.32 17.68 -8 17 C-7.34 16.34 -6.68 15.68 -6 15 C-5.34 15 -4.68 15 -4 15 C-4 14.01 -4 13.02 -4 12 C-3.56355253 7.28636735 -2.97337207 3.77389532 0 0 Z " fill="#343434" transform="translate(21,49)"/>
<path d="M0 0 C19.8 0.495 19.8 0.495 40 1 C40 1.33 40 1.66 40 2 C38.91581787 2.02505615 37.83163574 2.0501123 36.71459961 2.07592773 C32.66843091 2.17053929 28.62241253 2.27062586 24.57641602 2.37231445 C22.82970715 2.41546102 21.0829616 2.45714917 19.33618164 2.49731445 C16.81645684 2.55551169 14.29691329 2.61905997 11.77734375 2.68359375 C11.00414291 2.70030624 10.23094208 2.71701874 9.43431091 2.73423767 C4.87815027 2.85700021 0.49965725 3.26786121 -4 4 C-5.10636395 6.39068734 -5.10636395 6.39068734 -6 9 C-5.67 9.66 -5.34 10.32 -5 11 C-5.66 11 -6.32 11 -7 11 C-7.33 11.99 -7.66 12.98 -8 14 C-8.33 13.34 -8.66 12.68 -9 12 C-12.02934491 11.34227572 -12.02934491 11.34227572 -15 11 C-14.34 10.67 -13.68 10.34 -13 10 C-12.63451555 8.67511887 -12.3062434 7.33981486 -12 6 C-11.34 4.68 -10.68 3.36 -10 2 C-6.7 2 -3.4 2 0 2 C0 1.34 0 0.68 0 0 Z " fill="#464646" transform="translate(159,149)"/>
<path d="M0 0 C2.44821444 1.91599391 2.99324823 2.97243029 3.75 6.0625 C4 9 4 9 3 11 C3.99 11.33 4.98 11.66 6 12 C5.67 13.32 5.34 14.64 5 16 C5.66 16 6.32 16 7 16 C6.67 16.66 6.34 17.32 6 18 C4.906875 17.814375 3.81375 17.62875 2.6875 17.4375 C-0.93624133 16.7421932 -0.93624133 16.7421932 -4 18 C-3.67 18.99 -3.34 19.98 -3 21 C-3.99 21 -4.98 21 -6 21 C-4.93122579 15.88352771 -3.75418095 10.93363393 -2 6 C-1.62875 4.88625 -1.2575 3.7725 -0.875 2.625 C-0.441875 1.325625 -0.441875 1.325625 0 0 Z " fill="#494949" transform="translate(323,98)"/>
<path d="M0 0 C2.56296049 1.28148025 2.59318218 2.15611519 3.5 4.8125 C4.50682946 7.66009848 5.60814517 10.31570854 7 13 C7.33 13.99 7.66 14.98 8 16 C6.68 16.33 5.36 16.66 4 17 C3.34 16.01 2.68 15.02 2 14 C1.01 14.495 1.01 14.495 0 15 C0 14.34 0 13.68 0 13 C-0.66 13 -1.32 13 -2 13 C-2.33 13.66 -2.66 14.32 -3 15 C-4.32 14.67 -5.64 14.34 -7 14 C-7.33 12.68 -7.66 11.36 -8 10 C-7.01 10 -6.02 10 -5 10 C-4.731875 9.278125 -4.46375 8.55625 -4.1875 7.8125 C-3.01017502 5.02409874 -1.60854116 2.55904276 0 0 Z " fill="#292929" transform="translate(40,72)"/>
<path d="M0 0 C0.12375 0.8971875 0.12375 0.8971875 0.25 1.8125 C1.4141836 5.20803549 4.01674218 6.22274002 7 8 C5 10 3 12 1 14 C0.67 12.35 0.34 10.7 0 9 C0.66 9 1.32 9 2 9 C2 8.34 2 7.68 2 7 C0.68 7.33 -0.64 7.66 -2 8 C-1.67 7.01 -1.34 6.02 -1 5 C-5.24822374 5.47202486 -7.19989709 7.96655518 -10 11 C-10.66 10.67 -11.32 10.34 -12 10 C-11.01 8.68 -10.02 7.36 -9 6 C-10.98 6 -12.96 6 -15 6 C-12.61827612 3.26455475 -10.29334709 2.07454642 -6.9375 0.75 C-6.05964844 0.39421875 -5.18179687 0.0384375 -4.27734375 -0.328125 C-2 -1 -2 -1 0 0 Z " fill="#393939" transform="translate(455,51)"/>
<path d="M0 0 C0.99 0.33 1.98 0.66 3 1 C3 2.65 3 4.3 3 6 C2.34 6 1.68 6 1 6 C0.67 7.32 0.34 8.64 0 10 C-0.66 10 -1.32 10 -2 10 C-2 10.66 -2 11.32 -2 12 C-4.31 12.33 -6.62 12.66 -9 13 C-8.34 9.37 -7.68 5.74 -7 2 C-6.01 2 -5.02 2 -4 2 C-3.67 3.65 -3.34 5.3 -3 7 C-2.01 4.69 -1.02 2.38 0 0 Z " fill="#424242" transform="translate(284,117)"/>
<path d="M0 0 C0.66 0 1.32 0 2 0 C3 3 4 6 5 9 C4.67 9.66 4.34 10.32 4 11 C5.32 10.67 6.64 10.34 8 10 C7.67 11.65 7.34 13.3 7 15 C4.625 14.6875 4.625 14.6875 2 14 C1.34 13.01 0.68 12.02 0 11 C-1.65 11.66 -3.3 12.32 -5 13 C-4.690625 12.401875 -4.38125 11.80375 -4.0625 11.1875 C-2.89790296 8.91043228 -2.89790296 8.91043228 -2 6 C-1.33333333 4 -0.66666667 2 0 0 Z " fill="#232323" transform="translate(117,115)"/>
<path d="M0 0 C0.99 0.33 1.98 0.66 3 1 C3.94921875 3.06640625 3.94921875 3.06640625 4.6875 5.5625 C4.93886719 6.38878906 5.19023438 7.21507813 5.44921875 8.06640625 C5.63097656 8.70449219 5.81273438 9.34257813 6 10 C5.9071875 8.824375 5.9071875 8.824375 5.8125 7.625 C5.874375 6.75875 5.93625 5.8925 6 5 C6.99 4.34 7.98 3.68 9 3 C9.5345256 4.24420647 10.05208611 5.49570936 10.5625 6.75 C10.85253906 7.44609375 11.14257812 8.1421875 11.44140625 8.859375 C12.07831803 11.30012784 11.80248831 12.6403655 11 15 C10.34 15 9.68 15 9 15 C8.67 14.01 8.34 13.02 8 12 C6.68 12.33 5.36 12.66 4 13 C1.90649311 9.5980513 1.82057837 6.94727588 2 3 C1.34 3 0.68 3 0 3 C0 2.01 0 1.02 0 0 Z " fill="#717171" transform="translate(102,109)"/>
<path d="M0 0 C0.66 0 1.32 0 2 0 C2.66 2.97 3.32 5.94 4 9 C5.32 8.67 6.64 8.34 8 8 C5.375 12.875 5.375 12.875 2 14 C2 13.34 2 12.68 2 12 C0.35 12 -1.3 12 -3 12 C-2.01 8.04 -1.02 4.08 0 0 Z " fill="#3C3C3C" transform="translate(265,125)"/>
<path d="M0 0 C2.88807727 2.38580296 3.61954948 4.29060747 4 8 C3.67 8.66 3.34 9.32 3 10 C2.34 10 1.68 10 1 10 C0.67 11.32 0.34 12.64 0 14 C-1.32 14.33 -2.64 14.66 -4 15 C-2.05882353 2.05882353 -2.05882353 2.05882353 0 0 Z " fill="#565656" transform="translate(339,109)"/>
<path d="M0 0 C0.66 0 1.32 0 2 0 C2.20496094 0.69867188 2.40992188 1.39734375 2.62109375 2.1171875 C2.89050781 3.02726562 3.15992188 3.93734375 3.4375 4.875 C3.83775391 6.23238281 3.83775391 6.23238281 4.24609375 7.6171875 C4.92613826 9.98275381 4.92613826 9.98275381 6 12 C3.36 12.33 0.72 12.66 -2 13 C-1.85915204 11.20793453 -1.71216299 9.41635083 -1.5625 7.625 C-1.48128906 6.62726563 -1.40007812 5.62953125 -1.31640625 4.6015625 C-1 2 -1 2 0 0 Z " fill="#3C3C3C" transform="translate(127,112)"/>
<path d="M0 0 C0.99 0.33 1.98 0.66 3 1 C3.33 3.31 3.66 5.62 4 8 C2.68 8 1.36 8 0 8 C-0.33 8.66 -0.66 9.32 -1 10 C-2.9375 9.625 -2.9375 9.625 -5 9 C-5.33 8.34 -5.66 7.68 -6 7 C-8.02463255 6.34786708 -8.02463255 6.34786708 -10 6 C-9.67 5.01 -9.34 4.02 -9 3 C-9 3.66 -9 4.32 -9 5 C-6.36 5.33 -3.72 5.66 -1 6 C-0.67 4.02 -0.34 2.04 0 0 Z " fill="#646464" transform="translate(150,118)"/>
<path d="M0 0 C0.33 0 0.66 0 1 0 C1.04254356 1.99954746 1.04080783 4.00041636 1 6 C0.67 6.33 0.34 6.66 0 7 C0 7.99 0 8.98 0 10 C-1.98 10 -3.96 10 -6 10 C-6.33 10.66 -6.66 11.32 -7 12 C-8.46726798 8.18510326 -7.43336419 5.70988378 -6 2 C-5.01 2 -4.02 2 -3 2 C-3 2.66 -3 3.32 -3 4 C-2.01 4 -1.02 4 0 4 C0 2.68 0 1.36 0 0 Z " fill="#7A7A7A" transform="translate(101,112)"/>
<path d="M0 0 C2.56529454 1.28264727 2.66499863 2.22772349 3.625 4.875 C3.88539063 5.57367188 4.14578125 6.27234375 4.4140625 6.9921875 C5 9 5 9 5 12 C3.68 12 2.36 12 1 12 C0.34 10.68 -0.32 9.36 -1 8 C-1.66 9.98 -2.32 11.96 -3 14 C-3.99 14 -4.98 14 -6 14 C-4.7023817 8.70139194 -2.84984298 4.65474354 0 0 Z " fill="#5A5A5A" transform="translate(430,55)"/>
<path d="M0 0 C0.66 0.99 1.32 1.98 2 3 C1.34 3.66 0.68 4.32 0 5 C0 5.99 0 6.98 0 8 C-1.390625 9.421875 -1.390625 9.421875 -3.25 10.75 C-3.85328125 11.19859375 -4.4565625 11.6471875 -5.078125 12.109375 C-7 13 -7 13 -11 12 C-7.37 8.04 -3.74 4.08 0 0 Z " fill="#383838" transform="translate(294,205)"/>
<path d="M0 0 C0.66 0.33 1.32 0.66 2 1 C2.25 3.8125 2.25 3.8125 2 7 C0.0625 8.6875 0.0625 8.6875 -2 10 C-2.33 10.99 -2.66 11.98 -3 13 C-5.0625 13.6875 -5.0625 13.6875 -7 14 C-7.33 12.68 -7.66 11.36 -8 10 C-7.01 10 -6.02 10 -5 10 C-4.731875 9.278125 -4.46375 8.55625 -4.1875 7.8125 C-3.01017502 5.02409874 -1.60854116 2.55904276 0 0 Z " fill="#505050" transform="translate(40,72)"/>
<path d="M0 0 C0.99 0.33 1.98 0.66 3 1 C3.33 4.63 3.66 8.26 4 12 C2.68 11.34 1.36 10.68 0 10 C-0.66 10 -1.32 10 -2 10 C-1.34 6.7 -0.68 3.4 0 0 Z " fill="#5E5E5E" transform="translate(290,113)"/>
<path d="M0 0 C0.66 0.33 1.32 0.66 2 1 C2 1.66 2 2.32 2 3 C1.34 3 0.68 3 0 3 C0 3.66 0 4.32 0 5 C1.65 5 3.3 5 5 5 C5 5.33 5 5.66 5 6 C2.70858714 6.05384521 0.41681812 6.09272087 -1.875 6.125 C-3.78925781 6.15980469 -3.78925781 6.15980469 -5.7421875 6.1953125 C-9 6 -9 6 -11 4 C-10.28972656 3.79503906 -9.57945312 3.59007812 -8.84765625 3.37890625 C-7.92855469 3.10949219 -7.00945312 2.84007812 -6.0625 2.5625 C-4.68771484 2.16224609 -4.68771484 2.16224609 -3.28515625 1.75390625 C-1.0597507 1.20973949 -1.0597507 1.20973949 0 0 Z " fill="#545454" transform="translate(195,155)"/>
<path d="M0 0 C0.66 1.32 1.32 2.64 2 4 C2.99 5.485 2.99 5.485 4 7 C4 7.66 4 8.32 4 9 C4.495 9.495 4.99 9.99 5.5 10.5 C5.995 10.995 6.49 11.49 7 12 C7 12.66 7 13.32 7 14 C6.01 14 5.02 14 4 14 C3.67 15.32 3.34 16.64 3 18 C2 15 2 15 2 13 C2.66 12.67 3.32 12.34 4 12 C1.525 11.01 1.525 11.01 -1 10 C-0.67 6.7 -0.34 3.4 0 0 Z " fill="#606060" transform="translate(5,32)"/>
<path d="M0 0 C3 1 3 1 3.94921875 2.84765625 C4.31466797 3.94400391 4.31466797 3.94400391 4.6875 5.0625 C5.06455078 6.16271484 5.06455078 6.16271484 5.44921875 7.28515625 C5.63097656 7.85105469 5.81273438 8.41695312 6 9 C5.01 9.99 4.02 10.98 3 12 C2.67 9.69 2.34 7.38 2 5 C1.01 5.99 0.02 6.98 -1 8 C-1.99 7.67 -2.98 7.34 -4 7 C-2.68 4.69 -1.36 2.38 0 0 Z " fill="#808080" transform="translate(67,98)"/>
<path d="M0 0 C2 1 2 1 3.125 4.0625 C3.41375 5.031875 3.7025 6.00125 4 7 C4.66 6.67 5.32 6.34 6 6 C5.34 7.65 4.68 9.3 4 11 C3.67 10.34 3.34 9.68 3 9 C1.68 9 0.36 9 -1 9 C-1.33 9.66 -1.66 10.32 -2 11 C-2.66 10.67 -3.32 10.34 -4 10 C-2.68 6.7 -1.36 3.4 0 0 Z " fill="#5A5A5A" transform="translate(250,133)"/>
<path d="M0 0 C1.625 2.1875 1.625 2.1875 2 5 C0.1875 8.1875 0.1875 8.1875 -2 11 C-2.33 11.66 -2.66 12.32 -3 13 C-3.66 11.68 -4.32 10.36 -5 9 C-4.01 8.01 -3.02 7.02 -2 6 C-2.66 5.67 -3.32 5.34 -4 5 C-3.01 3.68 -2.02 2.36 -1 1 C-1.78375 1.20625 -2.5675 1.4125 -3.375 1.625 C-4.24125 1.74875 -5.1075 1.8725 -6 2 C-6.66 1.34 -7.32 0.68 -8 0 C-5.01122021 -1.4943899 -3.14997454 -0.91874257 0 0 Z " fill="#676767" transform="translate(393,100)"/>
<path d="M0 0 C0.66 0 1.32 0 2 0 C2.36743215 7.34864301 2.36743215 7.34864301 0.625 10.4375 C-1 12 -1 12 -3 13 C-3.44539877 4.2404908 -3.44539877 4.2404908 0 0 Z " fill="#313131" transform="translate(3,31)"/>
<path d="M0 0 C0.66 0.66 1.32 1.32 2 2 C5.38023517 2 7.83468937 1.12544378 11 0 C11 1.32 11 2.64 11 4 C6.375 6.125 6.375 6.125 3 5 C2.67 5.66 2.34 6.32 2 7 C1.01 6.34 0.02 5.68 -1 5 C-0.67 3.35 -0.34 1.7 0 0 Z " fill="#404040" transform="translate(344,124)"/>
<path d="M0 0 C0.66 0.33 1.32 0.66 2 1 C1.34 1.928125 0.68 2.85625 0 3.8125 C-2.26574554 6.79636556 -2.26574554 6.79636556 -2 10 C-3.32 10.33 -4.64 10.66 -6 11 C-6.75 8.8125 -6.75 8.8125 -7 6 C-4.88388365 2.67467431 -3.77269733 1.25756578 0 0 Z " fill="#545454" transform="translate(369,112)"/>
<path d="M0 0 C0.66 0.33 1.32 0.66 2 1 C1.773125 1.763125 1.54625 2.52625 1.3125 3.3125 C1.209375 4.199375 1.10625 5.08625 1 6 C2.33378575 7.8354799 2.33378575 7.8354799 4 9 C1.08517222 9.80967438 -0.46113217 10.21845993 -3.3125 9.0625 C-3.869375 8.711875 -4.42625 8.36125 -5 8 C-4 6 -4 6 -3 5 C-2.67 4.01 -2.34 3.02 -2 2 C-1.34 2 -0.68 2 0 2 C0 1.34 0 0.68 0 0 Z " fill="#3E3E3E" transform="translate(382,103)"/>
<path d="M0 0 C1.33957845 7.18501171 1.33957845 7.18501171 -0.25 11 C-0.8275 11.66 -1.405 12.32 -2 13 C-2.99 13 -3.98 13 -5 13 C-4.01 12.01 -3.02 11.02 -2 10 C-2.33 9.01 -2.66 8.02 -3 7 C-2.01 6.01 -1.02 5.02 0 4 C-1.98 4 -3.96 4 -6 4 C-6 3.34 -6 2.68 -6 2 C-2.25 0 -2.25 0 0 0 Z " fill="#7C7C7C" transform="translate(373,96)"/>
<path d="M0 0 C2.02045442 0.60183749 4.02111039 1.27306096 6 2 C6.33 2.66 6.66 3.32 7 4 C6.01 4 5.02 4 4 4 C4.33 4.99 4.66 5.98 5 7 C2.36 6.34 -0.28 5.68 -3 5 C-1.125 1.125 -1.125 1.125 0 0 Z " fill="#070707" transform="translate(3,41)"/>
<path d="M0 0 C2 1 2 1 2.66796875 2.99609375 C2.83941406 3.80175781 3.01085937 4.60742188 3.1875 5.4375 C3.45626953 6.64212891 3.45626953 6.64212891 3.73046875 7.87109375 C4 10 4 10 3 12 C2.34 12 1.68 12 1 12 C-1.32488647 8.36736489 -1.23961213 5.23314767 -1 1 C-0.67 0.67 -0.34 0.34 0 0 Z " fill="#6F6F6F" transform="translate(110,112)"/>
<path d="M0 0 C2.64 1.65 5.28 3.3 8 5 C6 7 4 9 2 11 C1.67 9.35 1.34 7.7 1 6 C1.66 6 2.32 6 3 6 C3 5.34 3 4.68 3 4 C1.68 4.33 0.36 4.66 -1 5 C-0.67 3.35 -0.34 1.7 0 0 Z " fill="#5F5F5F" transform="translate(454,54)"/>
<path d="M0 0 C0.99 0.33 1.98 0.66 3 1 C3 2.65 3 4.3 3 6 C2.34 6 1.68 6 1 6 C0.67 7.32 0.34 8.64 0 10 C-1.32 10 -2.64 10 -4 10 C-2.85408232 6.56224696 -1.44249373 3.3240073 0 0 Z " fill="#7A7A7A" transform="translate(284,117)"/>
<path d="M0 0 C0.66 0 1.32 0 2 0 C2.99 2.97 3.98 5.94 5 9 C4.34 9.66 3.68 10.32 3 11 C2.34 9.35 1.68 7.7 1 6 C-0.32 6.99 -1.64 7.98 -3 9 C-2.44271087 5.65626525 -1.64826111 2.96687001 0 0 Z " fill="#606060" transform="translate(415,79)"/>
<path d="M0 0 C2.88807727 2.38580296 3.61954948 4.29060747 4 8 C3.67 8.66 3.34 9.32 3 10 C2.34 10 1.68 10 1 10 C1 9.34 1 8.68 1 8 C0.34 8 -0.32 8 -1 8 C-1.04241723 5.66705225 -1.04092937 3.33297433 -1 1 C-0.67 0.67 -0.34 0.34 0 0 Z " fill="#5C5C5C" transform="translate(339,109)"/>
<path d="M0 0 C2.02045442 0.60183749 4.02111039 1.27306096 6 2 C6.33 2.66 6.66 3.32 7 4 C4.09399739 5.25664978 2.20395416 6 -1 6 C-1.625 4.125 -1.625 4.125 -2 2 C-1.34 1.34 -0.68 0.68 0 0 Z " fill="#494949" transform="translate(401,100)"/>
<path d="M0 0 C0.66 0 1.32 0 2 0 C2.66 1.98 3.32 3.96 4 6 C3.01 6.495 3.01 6.495 2 7 C2 6.34 2 5.68 2 5 C1.01 5.495 1.01 5.495 0 6 C-0.65555119 8.52733235 -0.65555119 8.52733235 -1 11 C-1.66 10.67 -2.32 10.34 -3 10 C-2.25 3.375 -2.25 3.375 0 0 Z " fill="#636363" transform="translate(59,97)"/>
<path d="M0 0 C0.99 0.495 0.99 0.495 2 1 C1.67 1.66 1.34 2.32 1 3 C2.65 2.34 4.3 1.68 6 1 C6 2.98 6 4.96 6 7 C4.35 7.33 2.7 7.66 1 8 C0.67 5.36 0.34 2.72 0 0 Z M2 4 C3 6 3 6 3 6 Z " fill="#888888" transform="translate(329,127)"/>
<path d="M0 0 C0.66 0.33 1.32 0.66 2 1 C2 2.65 2 4.3 2 6 C3.65 6.33 5.3 6.66 7 7 C6.01 8.485 6.01 8.485 5 10 C3.125 9.75 3.125 9.75 1 9 C-0.87380446 6.50159405 -1.05001932 5.36680834 -0.625 2.25 C-0.41875 1.5075 -0.2125 0.765 0 0 Z " fill="#565656" transform="translate(172,126)"/>
<path d="M0 0 C2 1 2 1 3 3.9375 C3.33 4.948125 3.66 5.95875 4 7 C4.66 7.66 5.32 8.32 6 9 C4.35 9.33 2.7 9.66 1 10 C0.67 9.01 0.34 8.02 0 7 C-0.66 6.67 -1.32 6.34 -2 6 C-1.34 4.02 -0.68 2.04 0 0 Z " fill="#777777" transform="translate(163,122)"/>
<path d="M0 0 C0.66 0 1.32 0 2 0 C3.25664978 2.90600261 4 4.79604584 4 8 C2.35 7.67 0.7 7.34 -1 7 C-0.67 4.69 -0.34 2.38 0 0 Z " fill="#707070" transform="translate(127,112)"/>
<path d="M0 0 C0.66 0.66 1.32 1.32 2 2 C1.67 2.66 1.34 3.32 1 4 C2.32 3.67 3.64 3.34 5 3 C4.67 4.65 4.34 6.3 4 8 C2.35 7.67 0.7 7.34 -1 7 C-0.67 4.69 -0.34 2.38 0 0 Z " fill="#3D3D3D" transform="translate(120,122)"/>
<path d="M0 0 C0.66 0 1.32 0 2 0 C2.66 1.98 3.32 3.96 4 6 C3.01 6.495 3.01 6.495 2 7 C1.67 6.34 1.34 5.68 1 5 C0.67 5.99 0.34 6.98 0 8 C-0.66 8 -1.32 8 -2 8 C-1.125 1.125 -1.125 1.125 0 0 Z " fill="#707070" transform="translate(117,115)"/>
<path d="M0 0 C1.98 0.99 3.96 1.98 6 3 C6 3.66 6 4.32 6 5 C5.360625 5.103125 4.72125 5.20625 4.0625 5.3125 C3.381875 5.539375 2.70125 5.76625 2 6 C1.67 6.99 1.34 7.98 1 9 C-1 6 -1 6 -1 4 C-0.01 4 0.98 4 2 4 C2 3.34 2 2.68 2 2 C1.34 2 0.68 2 0 2 C0 1.34 0 0.68 0 0 Z " fill="#6D6D6D" transform="translate(27,68)"/>
<path d="M0 0 C0.33 0.66 0.66 1.32 1 2 C1.66 2 2.32 2 3 2 C2.67 3.98 2.34 5.96 2 8 C0.35 7.67 -1.3 7.34 -3 7 C-2.34 6.01 -1.68 5.02 -1 4 C-1 3.01 -1 2.02 -1 1 C-0.67 0.67 -0.34 0.34 0 0 Z " fill="#414141" transform="translate(444,64)"/>
<path d="M0 0 C0 0.66 0 1.32 0 2 C-1.65 2.33 -3.3 2.66 -5 3 C-5 3.66 -5 4.32 -5 5 C-6.65 5.33 -8.3 5.66 -10 6 C-9 3 -9 3 -6.125 1.3125 C-3 0 -3 0 0 0 Z " fill="#525252" transform="translate(311,195)"/>
<path d="M0 0 C2.52259061 1.97420135 2.9929808 2.96745642 3.6875 6.1875 C3.790625 7.115625 3.89375 8.04375 4 9 C3.34 8.67 2.68 8.34 2 8 C2 7.34 2 6.68 2 6 C1.01 6 0.02 6 -1 6 C-0.67 4.02 -0.34 2.04 0 0 Z " fill="#7D7D7D" transform="translate(323,98)"/>
<path d="M0 0 C2.375 0.8125 2.375 0.8125 3.375 2.8125 C0.04965243 3.92094919 -2.24682575 3.65704356 -5.625 2.8125 C-3.74442913 0.33806465 -3.19312156 -0.22808011 0 0 Z " fill="#1E1E1E" transform="translate(393.625,97.1875)"/>
<path d="M0 0 C1.32 0.33 2.64 0.66 4 1 C3.6875 2.9375 3.6875 2.9375 3 5 C2.01 5.33 1.02 5.66 0 6 C0 5.34 0 4.68 0 4 C-0.66 4 -1.32 4 -2 4 C-1.34 2.68 -0.68 1.36 0 0 Z " fill="#434343" transform="translate(412,90)"/>
<path d="M0 0 C0.99 0.33 1.98 0.66 3 1 C3.6875 3.0625 3.6875 3.0625 4 5 C3.01 5.66 2.02 6.32 1 7 C0.34 6.67 -0.32 6.34 -1 6 C-0.67 4.02 -0.34 2.04 0 0 Z " fill="#707070" transform="translate(257,133)"/>
<path d="M0 0 C0 0.99 0 1.98 0 3 C-0.66 2.67 -1.32 2.34 -2 2 C-1.34 1.34 -0.68 0.68 0 0 Z M-5 5 C-4.67 5.99 -4.34 6.98 -4 8 C-3.34 8.33 -2.68 8.66 -2 9 C-3.32 9.33 -4.64 9.66 -6 10 C-6 6 -6 6 -5 5 Z " fill="#1C1C1C" transform="translate(377,102)"/>
<path d="M0 0 C1.32 1.32 2.64 2.64 4 4 C2.68 4 1.36 4 0 4 C-0.33 5.32 -0.66 6.64 -1 8 C-1.66 8 -2.32 8 -3 8 C-1.125 2.25 -1.125 2.25 0 0 Z " fill="#6E6E6E" transform="translate(27,60)"/>
<path d="M0 0 C2 2 2 2 2 4 C3.32 4.66 4.64 5.32 6 6 C3.03 5.67 0.06 5.34 -3 5 C-3 3 -3 3 -1.5 1.375 C-1.005 0.92125 -0.51 0.4675 0 0 Z " fill="#838383" transform="translate(76,120)"/>
<path d="M0 0 C1.32 0 2.64 0 4 0 C4.33 1.65 4.66 3.3 5 5 C4.67 4.34 4.34 3.68 4 3 C3.01 3.99 2.02 4.98 1 6 C0.34 5.67 -0.32 5.34 -1 5 C-0.67 3.35 -0.34 1.7 0 0 Z " fill="#626262" transform="translate(321,104)"/>
<path d="M0 0 C2.475 0.495 2.475 0.495 5 1 C5.33 1.99 5.66 2.98 6 4 C4.35 4.33 2.7 4.66 1 5 C0.67 3.35 0.34 1.7 0 0 Z " fill="#5F5F5F" transform="translate(380,91)"/>
<path d="M0 0 C0.66 0 1.32 0 2 0 C2 0.99 2 1.98 2 3 C1.34 3 0.68 3 0 3 C0 3.66 0 4.32 0 5 C0.66 5.33 1.32 5.66 2 6 C1.34 6 0.68 6 0 6 C0 6.66 0 7.32 0 8 C-0.66 8 -1.32 8 -2 8 C-2.20086443 4.28400809 -2.1519437 3.22791555 0 0 Z " fill="#797979" transform="translate(329,119)"/>
<path d="M0 0 C0.33 0.66 0.66 1.32 1 2 C1.66 2 2.32 2 3 2 C2.34 3.32 1.68 4.64 1 6 C0.01 6 -0.98 6 -2 6 C-1.67 5.34 -1.34 4.68 -1 4 C-1.66 3.67 -2.32 3.34 -3 3 C-2.01 2.01 -1.02 1.02 0 0 Z " fill="#5C5C5C" transform="translate(411,101)"/>
<path d="M0 0 C2.475 0.99 2.475 0.99 5 2 C5 2.99 5 3.98 5 5 C3.35 5.33 1.7 5.66 0 6 C-0.33 5.34 -0.66 4.68 -1 4 C-0.34 3.67 0.32 3.34 1 3 C0.67 2.01 0.34 1.02 0 0 Z " fill="#6B6B6B" transform="translate(45,92)"/>
<path d="M0 0 C0.66 0 1.32 0 2 0 C2.33 1.98 2.66 3.96 3 6 C2.01 6.33 1.02 6.66 0 7 C0 6.34 0 5.68 0 5 C-0.66 4.67 -1.32 4.34 -2 4 C-1.34 2.68 -0.68 1.36 0 0 Z " fill="#6A6A6A" transform="translate(377,79)"/>
<path d="M0 0 C0.33 0.66 0.66 1.32 1 2 C2.65 2 4.3 2 6 2 C6.12375 2.639375 6.2475 3.27875 6.375 3.9375 C6.684375 4.9584375 6.684375 4.9584375 7 6 C7.66 6.33 8.32 6.66 9 7 C7.0625 6.625 7.0625 6.625 5 6 C4.67 5.34 4.34 4.68 4 4 C1.97536745 3.34786708 1.97536745 3.34786708 0 3 C0 2.01 0 1.02 0 0 Z " fill="#3D3D3D" transform="translate(140,121)"/>
<path d="M0 0 C0.66 0.33 1.32 0.66 2 1 C2 2.65 2 4.3 2 6 C1.01 6.33 0.02 6.66 -1 7 C-1.04254356 5.00045254 -1.04080783 2.99958364 -1 1 C-0.67 0.67 -0.34 0.34 0 0 Z " fill="#515151" transform="translate(110,112)"/>
<path d="M0 0 C0.99 0.33 1.98 0.66 3 1 C3 2.98 3 4.96 3 7 C2.34 7 1.68 7 1 7 C0.67 4.69 0.34 2.38 0 0 Z " fill="#848484" transform="translate(290,113)"/>
<path d="M0 0 C0 1.32 0 2.64 0 4 C-2.31 4 -4.62 4 -7 4 C-3.17391304 0 -3.17391304 0 0 0 Z " fill="#626262" transform="translate(412,96)"/>
<path d="M0 0 C0.66 0 1.32 0 2 0 C2.66 2.31 3.32 4.62 4 7 C3.34 7.66 2.68 8.32 2 9 C0.4375 6.1875 0.4375 6.1875 -1 3 C-0.67 2.01 -0.34 1.02 0 0 Z " fill="#0C0C0C" transform="translate(396,82)"/>
<path d="M0 0 C0.99 0.33 1.98 0.66 3 1 C3 2.32 3 3.64 3 5 C1.35 5 -0.3 5 -2 5 C-1.34 3.35 -0.68 1.7 0 0 Z " fill="#949494" transform="translate(450,36)"/>
<path d="M0 0 C0.66 0 1.32 0 2 0 C2.38218767 1.65614657 2.71395102 3.32457024 3 5 C2 6 2 6 -0.5625 6.0625 C-1.7690625 6.0315625 -1.7690625 6.0315625 -3 6 C-2.34 5.34 -1.68 4.68 -1 4 C-0.3574765 1.93125966 -0.3574765 1.93125966 0 0 Z " fill="#737373" transform="translate(157,121)"/>
<path d="M0 0 C0.33 0 0.66 0 1 0 C1 2.64 1 5.28 1 8 C-0.32 7.67 -1.64 7.34 -3 7 C-2.67 6.01 -2.34 5.02 -2 4 C-1.34 4.33 -0.68 4.66 0 5 C0 3.35 0 1.7 0 0 Z " fill="#8F8F8F" transform="translate(108,114)"/>
<path d="M0 0 C0.66 0.66 1.32 1.32 2 2 C1.01 2 0.02 2 -1 2 C-1.33 3.32 -1.66 4.64 -2 6 C-2.66 6 -3.32 6 -4 6 C-4 4.35 -4 2.7 -4 1 C-2.125 0.375 -2.125 0.375 0 0 Z " fill="#565656" transform="translate(73,111)"/>
<path d="M0 0 C2 1.375 2 1.375 4 3 C4 3.66 4 4.32 4 5 C2.68 5.33 1.36 5.66 0 6 C-1.125 2.25 -1.125 2.25 0 0 Z " fill="#5E5E5E" transform="translate(44,83)"/>
</svg>
