<svg version="1.1" id="Layer_1" xmlns="http://www.w3.org/2000/svg" xmlns:xlink="http://www.w3.org/1999/xlink" x="0px" y="0px"
	 width="100%" viewBox="0 0 464 230" enable-background="new 0 0 464 230" xml:space="preserve">
<path fill="#FEFEFE" opacity="1.000000" stroke="none" 
	d="
M1.000000,37.000000 
	C1.000000,25.009167 1.000000,13.018333 1.000000,1.058836 
	C155.666672,1.058836 310.333344,1.058836 465.000000,1.058836 
	C465.000000,25.099342 465.000000,49.081013 464.655487,73.476425 
	C462.855835,72.639755 461.433746,71.348152 459.937683,70.148773 
	C457.799805,68.434822 453.326965,67.824753 457.002594,63.484230 
	C457.313873,63.116646 456.837189,62.081841 456.737488,61.428448 
	C458.552704,61.191433 460.212555,60.974701 462.898407,60.624008 
	C461.032623,59.688320 460.187469,59.264465 459.163177,58.561520 
	C457.641998,57.549034 456.299896,56.815643 454.925354,55.807945 
	C454.984406,55.373833 455.075928,55.214035 455.566223,54.950134 
	C456.895142,53.773392 457.825256,52.700741 458.990997,51.356342 
	C458.172302,50.718475 457.081482,49.868584 455.885376,48.764565 
	C455.455627,48.362858 455.131134,48.215279 454.689331,47.738533 
	C454.428101,46.185879 454.284210,44.962391 454.011200,43.303116 
	C452.940063,42.210041 451.803558,40.863716 451.102814,41.061478 
	C450.120026,41.338840 449.297974,42.674244 448.714478,43.727333 
	C448.225464,44.609978 448.176788,45.736599 447.675049,46.848030 
	C447.612885,47.283524 447.808777,47.626183 448.119812,48.237823 
	C447.791290,49.468704 447.347687,50.430599 447.015533,51.150818 
	C447.693756,52.105145 448.312225,52.975407 448.571167,53.889938 
	C446.298615,54.929688 444.385590,55.925167 441.519867,57.416397 
	C444.624725,57.657772 446.411804,57.796707 448.174683,58.296425 
	C447.146149,59.947990 446.141876,61.238773 445.135162,62.532677 
	C446.521179,63.960079 445.768219,70.075714 444.063751,71.058029 
	C441.437897,72.571342 434.721893,69.315399 434.155060,66.275169 
	C433.582977,63.206871 432.970673,60.146076 432.184845,56.097168 
	C429.212769,62.013653 425.749420,66.578239 428.352753,72.797264 
	C426.646179,73.790123 424.505646,75.035446 421.787689,76.616722 
	C424.407654,76.822716 426.131897,76.958282 428.091217,77.112335 
	C426.563568,80.672234 425.237488,83.762375 423.804596,87.101425 
	C424.150574,87.357964 424.999176,87.987183 426.462280,89.072029 
	C423.971497,89.948486 422.075195,90.615753 420.681671,91.106110 
	C419.522522,87.375572 418.544189,84.227020 417.392029,80.519012 
	C412.491333,83.662048 412.964600,88.705467 411.468689,93.018616 
	C409.669067,93.187424 408.017090,93.783081 406.746490,93.323715 
	C404.783630,92.614090 403.081604,91.182884 401.320374,89.669891 
	C400.180542,86.911728 398.989258,84.541382 397.436340,81.451424 
	C395.586700,86.607292 393.985870,91.069572 392.396454,95.500038 
	C393.234497,95.957001 394.123657,96.441856 395.688171,97.294975 
	C393.002319,98.432190 391.076416,99.247635 388.801025,100.036949 
	C387.591400,100.362564 386.731323,100.714317 385.535187,101.021774 
	C384.016449,100.327156 382.833740,99.676849 381.789612,98.647827 
	C382.883667,96.755310 383.839142,95.241493 384.226776,94.627388 
	C382.244629,89.640091 380.488007,85.220276 378.351318,79.844139 
	C376.451691,85.265617 374.874359,89.767197 373.305359,94.245087 
	C374.155792,94.796448 374.962494,95.319427 376.078247,96.042801 
	C373.528046,97.467476 371.507263,98.596382 368.997925,99.998222 
	C371.523621,100.415207 373.272369,100.703911 374.981262,101.249420 
	C374.886292,101.846283 374.831116,102.186340 374.478333,102.696152 
	C374.964478,104.060181 369.142120,104.389534 373.775604,106.388481 
	C372.840210,107.706184 371.888367,108.721115 370.667145,109.818039 
	C370.603058,110.224480 370.808350,110.548920 371.169739,111.013260 
	C371.325867,111.153145 371.741486,111.098198 371.987183,111.377975 
	C372.317871,112.116585 372.402863,112.575401 372.129211,113.177773 
	C369.053864,115.225044 366.337219,117.128761 363.363739,119.212456 
	C364.570251,120.199837 365.329468,120.821152 366.655396,121.906258 
	C359.121063,124.630173 352.118256,127.161919 344.727203,129.834030 
	C345.028931,128.157547 345.778198,126.681458 345.401459,125.596298 
	C344.146912,121.982849 341.719574,118.812317 342.136017,114.592232 
	C342.246063,113.477036 340.762665,112.204597 339.711426,111.017410 
	C339.299225,111.693657 339.186523,112.356850 339.130859,113.359634 
	C339.061615,114.126152 338.935333,114.553085 338.526031,115.003677 
	C338.384918,115.695427 338.526794,116.363518 338.763733,117.385284 
	C338.326935,118.758934 337.795074,119.778931 337.107605,120.433151 
	C335.292480,117.632805 330.818634,121.539474 330.079193,116.633392 
	C330.067596,115.989906 330.061493,115.732536 330.028625,115.205261 
	C329.669830,114.294212 329.337860,113.653076 328.987610,112.635437 
	C327.421173,108.577324 325.873016,104.895706 324.299591,101.153999 
	C323.024170,105.025314 321.657990,108.980408 320.480469,112.990891 
	C320.334686,113.487457 321.192413,114.278664 321.237549,115.095917 
	C320.000977,118.416145 319.111908,121.573799 318.222839,124.731453 
	C318.523010,125.212906 318.823181,125.694359 319.123352,126.175804 
	C311.192230,127.330231 303.261108,128.484665 295.653107,129.592041 
	C294.605774,125.344200 293.677521,121.579445 292.749268,117.814697 
	C292.350647,117.874695 291.952026,117.934692 291.553406,117.994698 
	C290.658112,120.074989 289.762817,122.155281 288.286407,125.585793 
	C287.516632,122.396843 287.117371,120.742760 286.519989,118.267990 
	C285.287323,121.946091 284.303558,124.881470 282.841858,129.242950 
	C281.417053,125.198624 280.532715,122.688423 279.533142,119.851120 
	C278.214600,124.129745 277.296844,128.097153 275.707245,131.774109 
	C275.080109,133.224747 273.069397,134.347305 271.441986,134.928604 
	C270.962494,135.099884 269.392578,133.027634 268.766632,131.763550 
	C268.071136,130.358978 267.883301,128.703003 267.369019,126.757668 
	C264.483093,130.937866 266.505341,137.018494 260.618256,139.168503 
	C260.278564,137.600555 259.997009,136.300980 259.730896,135.072662 
	C258.049072,137.653351 256.446106,140.113068 254.195923,143.565918 
	C252.987183,139.529938 252.316650,137.291046 251.332504,134.004974 
	C250.724152,136.440247 250.273102,137.822403 250.043854,139.240387 
	C249.259689,144.090927 246.394455,146.856400 241.574753,147.097092 
	C235.152313,147.417892 228.413208,148.627457 222.337021,147.204803 
	C207.970306,143.841049 193.931519,139.089401 179.721298,135.035110 
	C176.360291,134.076172 173.917862,132.695129 174.057083,128.747177 
	C174.063980,128.551559 173.610184,128.339676 173.287903,128.064499 
	C172.887314,129.477570 172.502090,130.836441 172.148407,132.084045 
	C166.532181,132.399475 165.423660,128.617615 164.665253,123.736877 
	C163.836197,126.224869 163.294067,127.851830 162.286438,130.875748 
	C160.741684,127.757759 159.762344,125.780998 158.510544,123.254288 
	C158.099915,125.150658 157.814636,126.468147 157.529358,127.785645 
	C157.043030,127.969048 156.556686,128.152451 156.070358,128.335861 
	C154.670532,125.677803 153.270706,123.019753 151.768188,120.166733 
	C151.257568,122.033562 150.805756,123.685432 150.276031,125.622093 
	C144.863922,124.363716 138.606247,125.054863 138.796204,116.436401 
	C137.291794,120.589943 137.066742,125.145203 132.004059,124.088989 
	C131.107391,120.652695 130.329315,117.670898 129.418533,114.180481 
	C125.395546,118.482292 129.980682,126.754883 121.829163,127.514275 
	C121.035431,123.734856 120.306381,120.263451 119.330521,115.616821 
	C117.670998,118.653343 116.751938,120.334999 115.156395,123.254456 
	C113.533951,119.793533 112.310997,117.184776 110.647453,113.636169 
	C110.114700,115.895477 109.961838,117.168434 109.492088,118.311104 
	C109.190758,119.044121 108.422440,119.585175 107.863457,120.212280 
	C107.562935,119.495857 107.222343,118.793259 106.969330,118.060432 
	C106.181770,115.779396 105.427399,113.486916 104.660156,111.198868 
	C104.263687,111.242844 103.867218,111.286827 103.470749,111.330803 
	C102.799721,115.127129 102.128693,118.923454 101.457664,122.719788 
	C101.098633,122.800697 100.739594,122.881615 100.380562,122.962532 
	C99.527679,120.536911 98.674805,118.111298 97.821922,115.685684 
	C96.328346,117.967758 95.812920,120.094627 95.627449,122.249878 
	C95.162453,127.653175 94.147179,128.665421 89.013840,127.960732 
	C84.787643,127.380554 80.591576,126.580917 78.337944,126.204887 
	C76.582657,123.243446 75.906067,121.004044 74.402298,119.785072 
	C70.874779,116.925613 70.691216,115.532761 74.277122,112.967979 
	C73.270752,111.873909 71.167526,110.261528 71.409210,109.743813 
	C73.396255,105.487320 69.910973,103.061531 68.663895,98.919731 
	C67.369202,102.141602 66.445412,104.440498 65.191002,107.562126 
	C63.648739,104.338654 62.386902,101.701294 60.524567,97.808853 
	C59.551067,101.170021 58.323574,103.487251 58.332825,105.799538 
	C58.349133,109.876404 56.061905,110.074745 53.537060,108.873627 
	C50.450951,107.405495 47.719372,105.192116 45.362812,103.647331 
	C45.936195,101.247742 46.381577,99.383850 46.835400,97.484627 
	C47.991428,97.306862 49.603790,97.058929 52.061489,96.681015 
	C48.986652,94.883072 46.853210,93.635582 44.760109,92.411690 
	C44.986729,91.092964 45.197838,89.864479 45.415554,88.597527 
	C46.360390,88.597527 47.366871,88.597527 47.651020,88.597527 
	C45.537937,83.884193 43.399025,79.113243 41.105701,73.997871 
	C39.427227,77.962006 37.797058,81.812057 36.131271,85.746223 
	C32.977421,83.680679 29.835917,81.623222 27.284079,79.951950 
	C27.941389,77.555740 28.413000,75.836487 28.938580,73.920509 
	C30.002398,73.771576 31.544626,73.555664 33.846050,73.233475 
	C30.057821,70.186615 23.676319,69.134964 27.966627,62.759968 
	C28.097631,62.565304 27.914032,62.109066 27.797554,61.805283 
	C26.367542,58.075737 24.922667,54.351891 23.013691,49.416847 
	C21.272295,53.568359 19.899324,56.841537 18.420160,60.769077 
	C18.326647,61.865208 18.339325,62.306973 18.268295,62.871521 
	C18.184584,62.994301 17.887447,62.988018 17.544138,63.008217 
	C16.430109,63.805832 15.659390,64.583260 14.543573,65.245590 
	C12.096548,63.927315 9.994620,62.724129 7.650790,61.382473 
	C8.730036,60.391846 9.477221,59.706009 10.506192,58.978458 
	C10.583574,58.285667 10.379170,57.634590 10.096231,56.623932 
	C10.880766,55.623222 11.743835,54.982101 12.808877,54.190948 
	C11.869296,53.488472 10.880970,52.749554 9.820471,51.642422 
	C9.464697,50.512779 9.181094,49.751343 9.056345,48.711945 
	C9.137543,47.885483 9.059887,47.336979 9.309299,46.856758 
	C10.537704,46.925034 11.439039,46.925034 13.172547,46.925034 
	C12.005390,45.860100 11.389359,45.298019 10.620174,44.461910 
	C9.706789,42.933758 8.946560,41.679642 8.464196,40.276886 
	C8.519605,39.694344 8.297149,39.260433 7.952753,38.509590 
	C7.017321,36.304127 6.203827,34.415604 5.350283,32.434105 
	C4.440478,33.967533 3.644507,35.309101 2.536781,36.690586 
	C1.816685,36.820335 1.408342,36.910168 1.000000,37.000000 
M452.584747,40.599693 
	C452.625031,39.790180 452.665344,38.980667 452.705627,38.171158 
	C452.358124,38.160244 452.010590,38.149334 451.663086,38.138420 
	C451.663086,38.983471 451.663086,39.828526 452.584747,40.599693 
z"/>
<path fill="#020202" opacity="1.000000" stroke="none" 
	d="
M18.526352,60.114716 
	C19.899324,56.841537 21.272295,53.568359 23.013691,49.416847 
	C24.922667,54.351891 26.367542,58.075737 27.797554,61.805283 
	C27.914032,62.109066 28.097631,62.565304 27.966627,62.759968 
	C23.676319,69.134964 30.057821,70.186615 33.846050,73.233475 
	C31.544626,73.555664 30.002398,73.771576 28.938580,73.920509 
	C28.413000,75.836487 27.941389,77.555740 27.284079,79.951950 
	C29.835917,81.623222 32.977421,83.680679 36.131271,85.746223 
	C37.797058,81.812057 39.427227,77.962006 41.105701,73.997871 
	C43.399025,79.113243 45.537937,83.884193 47.651020,88.597527 
	C47.366871,88.597527 46.360390,88.597527 45.415554,88.597527 
	C45.197838,89.864479 44.986729,91.092964 44.760109,92.411690 
	C46.853210,93.635582 48.986652,94.883072 52.061489,96.681015 
	C49.603790,97.058929 47.991428,97.306862 46.835400,97.484627 
	C46.381577,99.383850 45.936195,101.247742 45.362812,103.647331 
	C47.719372,105.192116 50.450951,107.405495 53.537060,108.873627 
	C56.061905,110.074745 58.349133,109.876404 58.332825,105.799538 
	C58.323574,103.487251 59.551067,101.170021 60.524567,97.808853 
	C62.386902,101.701294 63.648739,104.338654 65.191002,107.562126 
	C66.445412,104.440498 67.369202,102.141602 68.663895,98.919731 
	C69.910973,103.061531 73.396255,105.487320 71.409210,109.743813 
	C71.167526,110.261528 73.270752,111.873909 74.277122,112.967979 
	C70.691216,115.532761 70.874779,116.925613 74.402298,119.785072 
	C75.906067,121.004044 76.582657,123.243446 78.337944,126.204887 
	C80.591576,126.580917 84.787643,127.380554 89.013840,127.960732 
	C94.147179,128.665421 95.162453,127.653175 95.627449,122.249878 
	C95.812920,120.094627 96.328346,117.967758 97.821922,115.685684 
	C98.674805,118.111298 99.527679,120.536911 100.380562,122.962532 
	C100.739594,122.881615 101.098633,122.800697 101.457664,122.719788 
	C102.128693,118.923454 102.799721,115.127129 103.470749,111.330803 
	C103.867218,111.286827 104.263687,111.242844 104.660156,111.198868 
	C105.427399,113.486916 106.181770,115.779396 106.969330,118.060432 
	C107.222343,118.793259 107.562935,119.495857 107.863457,120.212280 
	C108.422440,119.585175 109.190758,119.044121 109.492088,118.311104 
	C109.961838,117.168434 110.114700,115.895477 110.647453,113.636169 
	C112.310997,117.184776 113.533951,119.793533 115.156395,123.254456 
	C116.751938,120.334999 117.670998,118.653343 119.330521,115.616821 
	C120.306381,120.263451 121.035431,123.734856 121.829163,127.514275 
	C129.980682,126.754883 125.395546,118.482292 129.418533,114.180481 
	C130.329315,117.670898 131.107391,120.652695 132.004059,124.088989 
	C137.066742,125.145203 137.291794,120.589943 138.796204,116.436401 
	C138.606247,125.054863 144.863922,124.363716 150.276031,125.622093 
	C150.805756,123.685432 151.257568,122.033562 151.768188,120.166733 
	C153.270706,123.019753 154.670532,125.677803 156.070358,128.335861 
	C156.556686,128.152451 157.043030,127.969048 157.529358,127.785645 
	C157.814636,126.468147 158.099915,125.150658 158.510544,123.254288 
	C159.762344,125.780998 160.741684,127.757759 162.286438,130.875748 
	C163.294067,127.851830 163.836197,126.224869 164.665253,123.736877 
	C165.423660,128.617615 166.532181,132.399475 172.148407,132.084045 
	C172.502090,130.836441 172.887314,129.477570 173.287903,128.064499 
	C173.610184,128.339676 174.063980,128.551559 174.057083,128.747177 
	C173.917862,132.695129 176.360291,134.076172 179.721298,135.035110 
	C193.931519,139.089401 207.970306,143.841049 222.337021,147.204803 
	C228.413208,148.627457 235.152313,147.417892 241.574753,147.097092 
	C246.394455,146.856400 249.259689,144.090927 250.043854,139.240387 
	C250.273102,137.822403 250.724152,136.440247 251.332504,134.004974 
	C252.316650,137.291046 252.987183,139.529938 254.195923,143.565918 
	C256.446106,140.113068 258.049072,137.653351 259.730896,135.072662 
	C259.997009,136.300980 260.278564,137.600555 260.618256,139.168503 
	C266.505341,137.018494 264.483093,130.937866 267.369019,126.757668 
	C267.883301,128.703003 268.071136,130.358978 268.766632,131.763550 
	C269.392578,133.027634 270.962494,135.099884 271.441986,134.928604 
	C273.069397,134.347305 275.080109,133.224747 275.707245,131.774109 
	C277.296844,128.097153 278.214600,124.129745 279.533142,119.851120 
	C280.532715,122.688423 281.417053,125.198624 282.841858,129.242950 
	C284.303558,124.881470 285.287323,121.946091 286.519989,118.267990 
	C287.117371,120.742760 287.516632,122.396843 288.286407,125.585793 
	C289.762817,122.155281 290.658112,120.074989 291.553406,117.994698 
	C291.952026,117.934692 292.350647,117.874695 292.749268,117.814697 
	C293.677521,121.579445 294.605774,125.344200 295.653107,129.592041 
	C303.261108,128.484665 311.192230,127.330231 319.123352,126.175804 
	C318.823181,125.694359 318.523010,125.212906 318.222839,124.731453 
	C319.111908,121.573799 320.000977,118.416145 321.487915,114.931198 
	C323.967621,114.408813 325.849426,114.213707 327.854004,114.271202 
	C328.452606,114.813835 328.928436,115.103882 329.272156,115.806061 
	C329.096832,116.503456 329.053558,116.788712 328.711487,117.267380 
	C328.995728,119.169128 330.605896,121.613792 329.994904,122.466209 
	C326.063538,127.950470 330.320251,131.026703 333.047333,134.602737 
	C333.079895,134.645416 333.504730,134.388977 334.005066,134.147156 
	C333.368622,133.299057 332.754547,132.480774 332.788483,132.526001 
	C333.859558,130.705841 334.821320,129.535034 335.278839,128.192413 
	C336.100098,125.782364 336.618347,123.269073 337.263184,120.798927 
	C337.795074,119.778931 338.326935,118.758934 338.858582,117.051689 
	C338.841919,115.902962 338.825470,115.441490 338.809021,114.980019 
	C338.935333,114.553085 339.061615,114.126152 339.353271,113.175461 
	C339.682739,112.102585 339.846863,111.553474 340.010986,111.004364 
	C340.762665,112.204597 342.246063,113.477036 342.136017,114.592232 
	C341.719574,118.812317 344.146912,121.982849 345.401459,125.596298 
	C345.778198,126.681458 345.028931,128.157547 344.727203,129.834030 
	C352.118256,127.161919 359.121063,124.630173 366.655396,121.906258 
	C365.329468,120.821152 364.570251,120.199837 363.363739,119.212456 
	C366.337219,117.128761 369.053864,115.225044 372.333618,112.964172 
	C372.511627,112.104073 372.126556,111.601135 371.741486,111.098190 
	C371.741486,111.098198 371.325867,111.153145 371.170715,110.727554 
	C370.989227,110.113319 370.962891,109.924675 370.936523,109.736038 
	C371.888367,108.721115 372.840210,107.706184 374.120972,106.326279 
	C374.558563,104.816338 374.667267,103.671364 374.775940,102.526398 
	C374.831116,102.186340 374.886292,101.846283 375.302246,101.110443 
	C377.658997,100.151962 379.655029,99.589249 381.651031,99.026535 
	C382.833740,99.676849 384.016449,100.327156 385.712402,101.300873 
	C386.965607,102.147423 387.705597,102.670555 389.294312,103.793716 
	C386.579498,103.978546 384.870026,104.094933 384.523987,104.118492 
	C383.452454,106.611359 382.723938,108.306267 381.682892,110.018898 
	C380.188049,110.721634 379.005737,111.406639 377.823395,112.091652 
	C378.092316,112.544350 378.361206,112.997047 378.630127,113.449745 
	C380.489990,112.935684 382.349854,112.421616 384.547913,111.975464 
	C387.161865,112.635796 388.913818,116.497604 392.207275,113.465767 
	C391.132111,112.580658 390.441010,112.011726 390.214172,111.825012 
	C391.599854,108.384384 392.840485,105.303925 394.028717,102.353607 
	C392.281494,101.533211 390.716003,100.798141 389.150513,100.063080 
	C391.076416,99.247635 393.002319,98.432190 395.688171,97.294975 
	C394.123657,96.441856 393.234497,95.957001 392.396454,95.500038 
	C393.985870,91.069572 395.586700,86.607292 397.436340,81.451424 
	C398.989258,84.541382 400.180542,86.911728 401.018250,89.811234 
	C401.669617,91.957047 402.674469,93.573700 403.092316,94.245964 
	C402.360870,96.714729 400.816193,99.352821 401.489929,100.176636 
	C403.015015,102.041458 405.634125,103.011566 408.653229,104.863922 
	C405.922729,105.041695 404.197113,105.154045 403.327332,105.210670 
	C402.740204,107.460602 402.275818,109.240074 401.763977,111.201500 
	C406.844391,115.646774 406.844391,115.646774 411.262451,112.159096 
	C410.370422,111.546585 409.557098,110.988121 409.411865,110.888412 
	C410.816284,107.262375 412.033356,104.120018 413.371918,100.664024 
	C411.437347,100.380905 409.918304,100.158600 407.880890,99.860428 
	C410.300385,98.450668 412.240387,97.320305 414.208496,96.173569 
	C413.285767,94.953773 412.536499,93.963257 411.787231,92.972733 
	C412.964600,88.705467 412.491333,83.662048 417.392029,80.519012 
	C418.544189,84.227020 419.522522,87.375572 420.681671,91.106110 
	C422.075195,90.615753 423.971497,89.948486 426.462280,89.072029 
	C424.999176,87.987183 424.150574,87.357964 423.804596,87.101425 
	C425.237488,83.762375 426.563568,80.672234 428.091217,77.112335 
	C426.131897,76.958282 424.407654,76.822716 421.787689,76.616722 
	C424.505646,75.035446 426.646179,73.790123 428.352753,72.797264 
	C425.749420,66.578239 429.212769,62.013653 432.184845,56.097168 
	C432.970673,60.146076 433.582977,63.206871 434.155060,66.275169 
	C434.721893,69.315399 441.437897,72.571342 444.063751,71.058029 
	C445.768219,70.075714 446.521179,63.960079 445.135162,62.532677 
	C446.141876,61.238773 447.146149,59.947990 448.426605,58.043571 
	C448.778748,56.235176 448.854706,55.040424 448.930695,53.845673 
	C448.312225,52.975407 447.693756,52.105145 447.015533,51.150818 
	C447.347687,50.430599 447.791290,49.468704 448.122864,47.933182 
	C447.984894,47.158108 447.959015,46.956654 447.933136,46.755199 
	C448.176788,45.736599 448.225464,44.609978 448.714478,43.727333 
	C449.297974,42.674244 450.120026,41.338840 451.102814,41.061478 
	C451.803558,40.863716 452.940063,42.210041 453.868073,43.616272 
	C452.894531,45.927944 450.495209,47.861126 454.806641,48.067696 
	C455.131134,48.215279 455.455627,48.362858 455.725830,49.077606 
	C455.503510,51.447929 455.335449,53.251080 455.167419,55.054230 
	C455.075928,55.214035 454.984406,55.373833 454.785553,56.124851 
	C454.546112,61.127338 457.762939,58.186573 459.342285,58.840611 
	C460.187469,59.264465 461.032623,59.688320 462.898407,60.624008 
	C460.212555,60.974701 458.552704,61.191433 456.737488,61.428448 
	C456.837189,62.081841 457.313873,63.116646 457.002594,63.484230 
	C453.326965,67.824753 457.799805,68.434822 459.937683,70.148773 
	C461.433746,71.348152 462.855835,72.639755 464.655487,73.945084 
	C465.000000,126.271233 465.000000,178.542465 465.000000,231.000000 
	C394.645874,231.000000 324.291595,231.000000 253.209167,230.659271 
	C259.257263,228.193619 266.030640,226.059418 272.810638,223.946503 
	C279.062592,221.998154 284.734711,219.374725 289.399902,214.352234 
	C295.533630,207.748749 302.356903,201.785767 308.296936,196.108139 
	C294.080475,194.531128 278.369141,192.788284 262.657806,191.045441 
	C269.145050,188.348419 276.856689,190.937454 282.083862,184.801682 
	C282.237152,184.621750 282.759827,184.809448 283.051636,184.686554 
	C286.593658,183.194748 290.109375,181.639725 293.662964,180.176544 
	C296.930206,178.831268 300.228546,177.560547 303.525909,176.289963 
	C305.489838,175.533173 307.490234,174.870850 309.452759,174.110611 
	C312.049652,173.104675 314.605316,171.989609 317.217926,171.028076 
	C318.807220,170.443176 320.470459,170.059250 322.100494,169.585022 
	C322.060516,169.009674 322.020538,168.434326 321.980591,167.858963 
	C311.326141,162.911804 299.702972,168.191528 287.962494,165.945053 
	C289.535309,165.132965 290.373596,164.700150 291.211884,164.267319 
	C291.177673,163.772659 291.143433,163.278000 291.109222,162.783340 
	C256.284576,162.380280 221.459915,161.977203 186.635254,161.574142 
	C186.579941,160.890717 186.524612,160.207306 186.469299,159.523880 
	C197.434143,157.292755 208.398987,155.061646 219.716614,152.758743 
	C218.277924,152.471725 216.952011,151.974106 215.627472,151.977783 
	C194.159195,152.037338 172.691116,152.159637 151.223251,152.308411 
	C151.155106,152.308868 151.091064,152.903366 150.947968,153.591202 
	C152.096146,153.878922 153.264267,154.171646 154.612015,154.509369 
	C153.849670,156.332840 153.099472,158.127213 151.981918,160.800278 
	C165.950104,164.069931 179.727432,167.294922 193.504761,170.519897 
	C164.926254,174.360352 136.557938,179.014694 108.435905,187.223938 
	C109.953804,188.865402 110.940010,189.931885 112.152229,191.242783 
	C99.402687,193.033524 86.672409,190.391571 75.008247,196.053131 
	C77.769264,197.199615 80.506454,198.014282 83.235909,197.989136 
	C88.427170,197.941299 93.428352,197.490005 96.868950,202.799911 
	C97.756363,204.169464 100.323578,204.808716 102.221565,205.088425 
	C105.823402,205.619247 109.512222,205.966461 113.141716,205.819046 
	C120.874191,205.504974 126.603683,208.529785 130.802017,214.987732 
	C132.881012,218.185654 135.317078,221.170761 137.777985,224.095322 
	C139.997498,226.733017 142.095367,229.797226 146.359879,229.104172 
	C146.467697,229.086624 146.781998,230.339569 147.000000,231.000000 
	C98.398109,231.000000 49.796227,231.000000 1.000000,231.000000 
	C1.000000,170.312576 1.000000,109.624947 1.317702,48.461311 
	C1.971729,47.551693 2.308054,47.118088 2.644379,46.684479 
	C2.096252,46.456322 1.548126,46.228161 1.000000,46.000000 
	C1.000000,46.000000 1.000000,45.500000 1.269490,45.080338 
	C1.359321,43.773785 1.179660,42.886894 1.000000,42.000000 
	C1.000000,42.000000 1.000000,41.500000 1.377922,41.168659 
	C2.120075,39.441769 2.484305,38.046219 2.848535,36.650669 
	C3.644507,35.309101 4.440478,33.967533 5.350283,32.434105 
	C6.203827,34.415604 7.017321,36.304127 7.951764,38.911354 
	C8.110586,39.895214 8.148458,40.160366 8.186332,40.425522 
	C8.946560,41.679642 9.706789,42.933758 10.273403,44.583996 
	C9.713936,45.582901 9.348083,46.185692 8.982231,46.788479 
	C9.059887,47.336979 9.137543,47.885483 8.732058,48.736610 
	C7.325444,50.152973 6.401972,51.266705 4.694778,53.325623 
	C7.391387,52.643417 8.642015,52.327023 9.892644,52.010632 
	C10.880970,52.749554 11.869296,53.488472 12.808877,54.190948 
	C11.743835,54.982101 10.880766,55.623222 10.024294,56.962620 
	C10.095399,58.113991 10.159904,58.567081 10.224409,59.020176 
	C9.477221,59.706009 8.730036,60.391846 7.650790,61.382473 
	C9.994620,62.724129 12.096548,63.927315 14.728882,65.526604 
	C16.957615,66.113953 18.655941,66.305206 20.647169,66.529434 
	C19.355740,64.872208 18.621593,63.930111 17.887447,62.988018 
	C17.887447,62.988018 18.184584,62.994301 18.671761,62.663033 
	C18.948076,61.592751 18.737215,60.853733 18.526352,60.114716 
z"/>
<path fill="#FCFCFC" opacity="1.000000" stroke="none" 
	d="
M147.468658,231.000000 
	C146.781998,230.339569 146.467697,229.086624 146.359879,229.104172 
	C142.095367,229.797226 139.997498,226.733017 137.777985,224.095322 
	C135.317078,221.170761 132.881012,218.185654 130.802017,214.987732 
	C126.603683,208.529785 120.874191,205.504974 113.141716,205.819046 
	C109.512222,205.966461 105.823402,205.619247 102.221565,205.088425 
	C100.323578,204.808716 97.756363,204.169464 96.868950,202.799911 
	C93.428352,197.490005 88.427170,197.941299 83.235909,197.989136 
	C80.506454,198.014282 77.769264,197.199615 75.008247,196.053131 
	C86.672409,190.391571 99.402687,193.033524 112.152229,191.242783 
	C110.940010,189.931885 109.953804,188.865402 108.435905,187.223938 
	C136.557938,179.014694 164.926254,174.360352 193.504761,170.519897 
	C179.727432,167.294922 165.950104,164.069931 151.981918,160.800278 
	C153.099472,158.127213 153.849670,156.332840 154.612015,154.509369 
	C153.264267,154.171646 152.096146,153.878922 150.947968,153.591202 
	C151.091064,152.903366 151.155106,152.308868 151.223251,152.308411 
	C172.691116,152.159637 194.159195,152.037338 215.627472,151.977783 
	C216.952011,151.974106 218.277924,152.471725 219.716614,152.758743 
	C208.398987,155.061646 197.434143,157.292755 186.469299,159.523880 
	C186.524612,160.207306 186.579941,160.890717 186.635254,161.574142 
	C221.459915,161.977203 256.284576,162.380280 291.109222,162.783340 
	C291.143433,163.278000 291.177673,163.772659 291.211884,164.267319 
	C290.373596,164.700150 289.535309,165.132965 287.962494,165.945053 
	C299.702972,168.191528 311.326141,162.911804 321.980591,167.858963 
	C322.020538,168.434326 322.060516,169.009674 322.100494,169.585022 
	C320.470459,170.059250 318.807220,170.443176 317.217926,171.028076 
	C314.605316,171.989609 312.049652,173.104675 309.452759,174.110611 
	C307.490234,174.870850 305.489838,175.533173 303.525909,176.289963 
	C300.228546,177.560547 296.930206,178.831268 293.662964,180.176544 
	C290.109375,181.639725 286.593658,183.194748 283.051636,184.686554 
	C282.759827,184.809448 282.237152,184.621750 282.083862,184.801682 
	C276.856689,190.937454 269.145050,188.348419 262.657806,191.045441 
	C278.369141,192.788284 294.080475,194.531128 308.296936,196.108139 
	C302.356903,201.785767 295.533630,207.748749 289.399902,214.352234 
	C284.734711,219.374725 279.062592,221.998154 272.810638,223.946503 
	C266.030640,226.059418 259.257263,228.193619 252.740509,230.659271 
	C217.979111,231.000000 182.958206,231.000000 147.468658,231.000000 
z"/>
<path fill="#131313" opacity="1.000000" stroke="none" 
	d="
M2.536781,36.690586 
	C2.484305,38.046219 2.120075,39.441769 1.377922,40.918659 
	C1.000000,39.933331 1.000000,38.866661 1.000000,37.399994 
	C1.408342,36.910168 1.816685,36.820335 2.536781,36.690586 
z"/>
<path fill="#131313" opacity="1.000000" stroke="none" 
	d="
M1.000000,46.333332 
	C1.548126,46.228161 2.096252,46.456322 2.644379,46.684479 
	C2.308054,47.118088 1.971729,47.551693 1.317702,47.992653 
	C1.000000,47.555553 1.000000,47.111111 1.000000,46.333332 
z"/>
<path fill="#131313" opacity="1.000000" stroke="none" 
	d="
M1.000000,42.375000 
	C1.179660,42.886894 1.359321,43.773785 1.269490,44.830338 
	C1.000000,44.250000 1.000000,43.500000 1.000000,42.375000 
z"/>
<path fill="#E4E4E4" opacity="1.000000" stroke="none" 
	d="
M411.468689,93.018623 
	C412.536499,93.963257 413.285767,94.953773 414.208496,96.173569 
	C412.240387,97.320305 410.300385,98.450668 407.880890,99.860428 
	C409.918304,100.158600 411.437347,100.380905 413.371918,100.664024 
	C412.033356,104.120018 410.816284,107.262375 409.411865,110.888412 
	C409.557098,110.988121 410.370422,111.546585 411.262451,112.159096 
	C406.844391,115.646774 406.844391,115.646774 401.763977,111.201500 
	C402.275818,109.240074 402.740204,107.460602 403.327332,105.210670 
	C404.197113,105.154045 405.922729,105.041695 408.653229,104.863922 
	C405.634125,103.011566 403.015015,102.041458 401.489929,100.176636 
	C400.816193,99.352821 402.360870,96.714729 403.092316,94.245964 
	C402.674469,93.573700 401.669617,91.957047 400.966858,90.199051 
	C403.081604,91.182884 404.783630,92.614090 406.746490,93.323715 
	C408.017090,93.783081 409.669067,93.187424 411.468689,93.018623 
M404.776611,110.082352 
	C404.970276,110.077881 405.163910,110.073418 405.357574,110.068932 
	C405.150513,109.881622 404.943451,109.694313 404.641449,109.507095 
	C404.641449,109.507095 404.506744,109.736717 404.776611,110.082352 
z"/>
<path fill="#121212" opacity="1.000000" stroke="none" 
	d="
M381.789612,98.647827 
	C379.655029,99.589249 377.658997,100.151962 375.342041,100.853645 
	C373.272369,100.703911 371.523621,100.415207 368.997925,99.998222 
	C371.507263,98.596382 373.528046,97.467476 376.078247,96.042801 
	C374.962494,95.319427 374.155792,94.796448 373.305359,94.245087 
	C374.874359,89.767197 376.451691,85.265617 378.351318,79.844139 
	C380.488007,85.220276 382.244629,89.640091 384.226776,94.627388 
	C383.839142,95.241493 382.883667,96.755310 381.789612,98.647827 
z"/>
<path fill="#E9E9E9" opacity="1.000000" stroke="none" 
	d="
M337.107605,120.433151 
	C336.618347,123.269073 336.100098,125.782364 335.278839,128.192413 
	C334.821320,129.535034 333.859558,130.705841 332.788483,132.526001 
	C332.754547,132.480774 333.368622,133.299057 334.005066,134.147156 
	C333.504730,134.388977 333.079895,134.645416 333.047333,134.602737 
	C330.320251,131.026703 326.063538,127.950470 329.994904,122.466209 
	C330.605896,121.613792 328.995728,119.169128 328.985046,117.351593 
	C329.733124,117.168106 329.908905,117.093811 330.084656,117.019516 
	C330.818634,121.539474 335.292480,117.632805 337.107605,120.433151 
z"/>
<path fill="#E9E9E9" opacity="1.000000" stroke="none" 
	d="
M381.995392,110.001175 
	C382.723938,108.306267 383.452454,106.611359 384.523987,104.118492 
	C384.870026,104.094933 386.579498,103.978546 389.294312,103.793716 
	C387.705597,102.670555 386.965607,102.147423 386.048401,101.345177 
	C386.731323,100.714317 387.591400,100.362564 388.801025,100.036942 
	C390.716003,100.798141 392.281494,101.533211 394.028717,102.353607 
	C392.840485,105.303925 391.599854,108.384384 390.214172,111.825012 
	C390.441010,112.011726 391.132111,112.580658 392.207275,113.465767 
	C388.913818,116.497604 387.161865,112.635796 384.414215,111.706802 
	C383.293335,110.913879 382.644379,110.457527 381.995392,110.001175 
z"/>
<path fill="#171717" opacity="1.000000" stroke="none" 
	d="
M327.731201,114.018608 
	C325.849426,114.213707 323.967621,114.408813 321.835480,114.768623 
	C321.192413,114.278664 320.334686,113.487457 320.480469,112.990891 
	C321.657990,108.980408 323.024170,105.025314 324.299591,101.153999 
	C325.873016,104.895706 327.421173,108.577324 328.735168,112.745392 
	C328.244446,113.494102 327.987823,113.756355 327.731201,114.018608 
z"/>
<path fill="#1A1A1A" opacity="1.000000" stroke="none" 
	d="
M448.571167,53.889938 
	C448.854706,55.040424 448.778748,56.235176 448.450867,57.682785 
	C446.411804,57.796707 444.624725,57.657772 441.519867,57.416397 
	C444.385590,55.925167 446.298615,54.929688 448.571167,53.889938 
z"/>
<path fill="#1A1A1A" opacity="1.000000" stroke="none" 
	d="
M455.566223,54.950134 
	C455.335449,53.251080 455.503510,51.447929 455.831116,49.331734 
	C457.081482,49.868584 458.172302,50.718475 458.990997,51.356342 
	C457.825256,52.700741 456.895142,53.773392 455.566223,54.950134 
z"/>
<path fill="#EBEBEB" opacity="1.000000" stroke="none" 
	d="
M17.544138,63.008217 
	C18.621593,63.930111 19.355740,64.872208 20.647169,66.529434 
	C18.655941,66.305206 16.957615,66.113953 15.073980,65.641693 
	C15.659390,64.583260 16.430109,63.805832 17.544138,63.008217 
z"/>
<path fill="#1A1A1A" opacity="1.000000" stroke="none" 
	d="
M454.689331,47.738533 
	C450.495209,47.861126 452.894531,45.927944 453.997162,44.052063 
	C454.284210,44.962391 454.428101,46.185879 454.689331,47.738533 
z"/>
<path fill="#131313" opacity="1.000000" stroke="none" 
	d="
M9.820471,51.642422 
	C8.642015,52.327023 7.391387,52.643417 4.694778,53.325623 
	C6.401972,51.266705 7.325444,50.152973 8.573204,49.014576 
	C9.181094,49.751343 9.464697,50.512779 9.820471,51.642422 
z"/>
<path fill="#1A1A1A" opacity="1.000000" stroke="none" 
	d="
M459.163177,58.561520 
	C457.762939,58.186573 454.546112,61.127338 454.818054,56.399162 
	C456.299896,56.815643 457.641998,57.549034 459.163177,58.561520 
z"/>
<path fill="#151515" opacity="1.000000" stroke="none" 
	d="
M374.478333,102.696152 
	C374.667267,103.671364 374.558563,104.816338 374.104523,106.023506 
	C369.142120,104.389534 374.964478,104.060181 374.478333,102.696152 
z"/>
<path fill="#131313" opacity="1.000000" stroke="none" 
	d="
M9.309299,46.856758 
	C9.348083,46.185692 9.713936,45.582901 10.426558,44.858028 
	C11.389359,45.298019 12.005390,45.860100 13.172547,46.925034 
	C11.439039,46.925034 10.537704,46.925034 9.309299,46.856758 
z"/>
<path fill="#E9E9E9" opacity="1.000000" stroke="none" 
	d="
M327.854004,114.271202 
	C327.987823,113.756355 328.244446,113.494102 328.753479,113.121887 
	C329.337860,113.653076 329.669830,114.294212 329.869934,115.151367 
	C329.738037,115.367386 329.404236,115.393913 329.404236,115.393921 
	C328.928436,115.103882 328.452606,114.813835 327.854004,114.271202 
z"/>
<path fill="#EBEBEB" opacity="1.000000" stroke="none" 
	d="
M10.506193,58.978458 
	C10.159904,58.567081 10.095399,58.113991 10.102831,57.322205 
	C10.379170,57.634590 10.583574,58.285667 10.506193,58.978458 
z"/>
<path fill="#1A1A1A" opacity="1.000000" stroke="none" 
	d="
M452.123901,40.636635 
	C451.663086,39.828526 451.663086,38.983471 451.663086,38.138420 
	C452.010590,38.149334 452.358124,38.160244 452.705627,38.171158 
	C452.665344,38.980667 452.625031,39.790180 452.123901,40.636635 
z"/>
<path fill="#E9E9E9" opacity="1.000000" stroke="none" 
	d="
M339.711456,111.017418 
	C339.846863,111.553474 339.682739,112.102585 339.296204,112.835869 
	C339.186523,112.356850 339.299225,111.693657 339.711456,111.017418 
z"/>
<path fill="#E9E9E9" opacity="1.000000" stroke="none" 
	d="
M338.526001,115.003677 
	C338.825470,115.441490 338.841919,115.902962 338.763519,116.698029 
	C338.526794,116.363518 338.384918,115.695427 338.526001,115.003677 
z"/>
<path fill="#151515" opacity="1.000000" stroke="none" 
	d="
M371.987183,111.377975 
	C372.126556,111.601135 372.511627,112.104073 372.692261,112.820618 
	C372.402863,112.575401 372.317871,112.116585 371.987183,111.377975 
z"/>
<path fill="#EBEBEB" opacity="1.000000" stroke="none" 
	d="
M18.420158,60.769077 
	C18.737215,60.853733 18.948076,61.592751 18.755472,62.540253 
	C18.339325,62.306973 18.326647,61.865208 18.420158,60.769077 
z"/>
<path fill="#1A1A1A" opacity="1.000000" stroke="none" 
	d="
M447.675049,46.848030 
	C447.959015,46.956654 447.984894,47.158108 448.007751,47.664200 
	C447.808777,47.626183 447.612885,47.283524 447.675049,46.848030 
z"/>
<path fill="#151515" opacity="1.000000" stroke="none" 
	d="
M370.667114,109.818031 
	C370.962891,109.924675 370.989227,110.113319 371.014587,110.587662 
	C370.808350,110.548920 370.603058,110.224480 370.667114,109.818031 
z"/>
<path fill="#171717" opacity="1.000000" stroke="none" 
	d="
M329.272156,115.806061 
	C329.404236,115.393913 329.738037,115.367386 329.896729,115.421280 
	C330.061493,115.732536 330.067596,115.989906 330.079193,116.633392 
	C329.908905,117.093811 329.733124,117.168106 329.283813,117.158188 
	C329.053558,116.788712 329.096832,116.503456 329.272156,115.806061 
z"/>
<path fill="#131313" opacity="1.000000" stroke="none" 
	d="
M8.464196,40.276886 
	C8.148458,40.160366 8.110586,39.895214 8.073704,39.228294 
	C8.297149,39.260433 8.519605,39.694344 8.464196,40.276886 
z"/>
<path fill="#101010" opacity="1.000000" stroke="none" 
	d="
M381.682892,110.018898 
	C382.644379,110.457527 383.293335,110.913879 384.076019,111.638893 
	C382.349854,112.421616 380.489990,112.935684 378.630127,113.449745 
	C378.361206,112.997047 378.092316,112.544350 377.823395,112.091652 
	C379.005737,111.406639 380.188049,110.721634 381.682892,110.018898 
z"/>
<path fill="#020202" opacity="1.000000" stroke="none" 
	d="
M404.506744,109.736717 
	C404.506744,109.736717 404.641449,109.507095 404.643433,109.576385 
	C404.645416,109.645683 404.506744,109.736717 404.506744,109.736717 
z"/>
<path fill="#E8E8E8" opacity="1.000000" stroke="none" 
	d="
M404.690918,109.576340 
	C404.943451,109.694313 405.150513,109.881622 405.357574,110.068939 
	C405.163910,110.073418 404.970276,110.077881 404.641663,109.909531 
	C404.506744,109.736717 404.645416,109.645683 404.690918,109.576340 
z"/>
</svg>